<svg width="100" height="100" viewBox="0 0 100 100" fill="none" xmlns="http://www.w3.org/2000/svg">
<rect width="100" height="100" rx="4.24" fill="#D5D5D5"/>
<path d="M51.987 49.625C52.024 49.625 52.0601 49.6142 52.0909 49.5937C52.1217 49.5733 52.1457 49.5442 52.16 49.5102C52.1744 49.4761 52.1783 49.4386 52.1714 49.4023C52.1644 49.3661 52.147 49.3326 52.1211 49.3063L48.4461 45.5694C48.42 45.5429 48.3866 45.5247 48.3501 45.5173C48.3136 45.5098 48.2758 45.5133 48.2413 45.5275C48.2069 45.5416 48.1775 45.5657 48.1567 45.5966C48.136 45.6275 48.125 45.6639 48.125 45.7011V49.0625C48.125 49.2117 48.1843 49.3548 48.2898 49.4603C48.3952 49.5657 48.5383 49.625 48.6875 49.625H51.987Z" fill="#B8B8B8"/>
<path d="M47.2344 50.5156C47.0418 50.3257 46.8889 50.0995 46.7843 49.85C46.6797 49.6006 46.6255 49.333 46.625 49.0625V44.75H43.25C42.4551 44.7523 41.6934 45.0692 41.1313 45.6313C40.5692 46.1934 40.2523 46.9551 40.25 47.75V58.25C40.25 59.0456 40.5661 59.8087 41.1287 60.3713C41.6913 60.9339 42.4544 61.25 43.25 61.25H50C50.7956 61.25 51.5587 60.9339 52.1213 60.3713C52.6839 59.8087 53 59.0456 53 58.25V51.125H48.6875C48.417 51.1246 48.1493 51.0706 47.8999 50.966C47.6504 50.8613 47.4242 50.7083 47.2344 50.5156Z" fill="#B8B8B8"/>
<path d="M55.4375 43.625H58.737C58.774 43.625 58.8101 43.6142 58.8409 43.5937C58.8717 43.5733 58.8957 43.5443 58.91 43.5102C58.9244 43.4762 58.9283 43.4386 58.9214 43.4023C58.9144 43.3661 58.897 43.3326 58.8711 43.3063L55.1961 39.5694C55.17 39.5429 55.1366 39.5247 55.1001 39.5173C55.0636 39.5098 55.0258 39.5133 54.9913 39.5275C54.9569 39.5416 54.9275 39.5657 54.9067 39.5966C54.886 39.6275 54.875 39.6639 54.875 39.7011V43.0625C54.875 43.2117 54.9343 43.3548 55.0398 43.4603C55.1452 43.5657 55.2883 43.625 55.4375 43.625Z" fill="#B8B8B8"/>
<path d="M55.4375 45.125C54.8918 45.1208 54.3696 44.9022 53.9837 44.5163C53.5978 44.1304 53.3792 43.6082 53.375 43.0625V38.75H48.3125C47.5668 38.7509 46.852 39.0475 46.3247 39.5747C45.7975 40.102 45.5009 40.8168 45.5 41.5625V43.25H47.4744C47.7264 43.251 47.9757 43.3018 48.208 43.3995C48.4403 43.4971 48.6511 43.6397 48.8281 43.8191L53.945 49.0222C54.302 49.3844 54.5013 49.873 54.4995 50.3816V56.75H56.9862C58.5102 56.75 59.7495 55.4881 59.7495 53.9375V45.125H55.4375Z" fill="#B8B8B8"/>
</svg>
