<svg width="100" height="100" viewBox="0 0 100 100" fill="none" xmlns="http://www.w3.org/2000/svg">
<rect width="100" height="100" rx="4.24" fill="#D5D5D5"/>
<g clip-path="url(#clip0_266_1344)">
<path d="M58.0447 44.0375H45.2796C43.8718 44.0375 42.7124 45.1766 42.7124 46.577V56.7356C42.7124 58.136 43.8718 59.275 45.2796 59.275H58.0327C59.4405 59.275 60.5999 58.191 60.5999 56.7907V46.577C60.5999 45.1766 59.4538 44.0375 58.0447 44.0375ZM54.8502 46.5774C55.2264 46.5797 55.5935 46.6933 55.9052 46.904C56.2169 47.1147 56.4593 47.413 56.6016 47.7612C56.744 48.1094 56.7801 48.492 56.7053 48.8607C56.6305 49.2294 56.4482 49.5677 56.1814 49.8329C55.9145 50.0982 55.5751 50.2784 55.206 50.351C54.8368 50.4235 54.4545 50.3851 54.1071 50.2406C53.7597 50.0962 53.4629 49.852 53.2542 49.5391C53.0454 49.2261 52.934 48.8583 52.9339 48.4821C52.9359 47.9755 53.1388 47.4904 53.4981 47.1332C53.8573 46.776 54.3436 46.576 54.8502 46.577V46.5774ZM45.2626 58.0055C44.5587 58.0055 44.0262 57.4362 44.0262 56.736V54.0516L47.7718 50.7064C48.138 50.3843 48.6127 50.213 49.1002 50.2271C49.5876 50.2412 50.0516 50.4395 50.3986 50.7822L52.9923 53.3539L48.3134 58.0051L45.2626 58.0055ZM59.2749 56.7356C59.2748 56.9025 59.2419 57.0677 59.178 57.2218C59.114 57.376 59.0203 57.516 58.9022 57.6339C58.7841 57.7518 58.6439 57.8453 58.4897 57.909C58.3355 57.9727 58.1702 58.0053 58.0033 58.0051H50.1241L54.972 53.1883C55.316 52.8981 55.7513 52.7384 56.2014 52.7372C56.6514 52.7359 57.0876 52.8933 57.4332 53.1817L59.2749 54.7448V56.7356Z" fill="#ADADAD"/>
<path d="M55.2999 40.725H42.0499C41.3471 40.725 40.673 41.0042 40.1761 41.5012C39.6791 41.9982 39.3999 42.6722 39.3999 43.375V53.975C39.4004 54.5626 39.5958 55.1333 39.9554 55.5979C40.3151 56.0625 40.8187 56.3946 41.3874 56.5422V45.6938C41.3874 44.9031 41.7015 44.1448 42.2606 43.5857C42.8197 43.0266 43.578 42.7125 44.3687 42.7125H57.8671C57.7195 42.1439 57.3873 41.6402 56.9228 41.2806C56.4582 40.9209 55.8874 40.7255 55.2999 40.725Z" fill="#ADADAD"/>
</g>
<defs>
<clipPath id="clip0_266_1344">
<rect width="21.2" height="21.2" fill="white" transform="translate(39.3999 39.4)"/>
</clipPath>
</defs>
</svg>
