<svg width="299" height="455" viewBox="0 0 299 455" fill="none" xmlns="http://www.w3.org/2000/svg">
<path d="M194.64 200.212C194.663 200.354 194.675 200.484 194.699 200.615L194.746 200.959L195.838 207.802L196.917 214.728L198.992 228.616C200.344 237.879 201.625 247.153 202.835 256.404C203.286 259.95 203.736 263.497 204.175 267.031C204.661 271.063 205.148 275.107 205.598 279.128C205.788 280.788 205.966 282.449 206.144 284.109C207.128 293.313 207.982 302.48 208.587 311.47C208.872 315.941 209.121 320.425 209.227 324.706C209.275 325.797 209.263 326.829 209.287 327.885V332.296C209.263 332.771 209.239 333.269 209.216 333.755C209.168 334.728 209.156 335.688 209.073 336.685C208.587 344.548 207.211 352.814 205.337 361.116C203.452 369.43 200.997 377.803 198.162 386.093C196.739 390.244 195.209 394.372 193.608 398.452C192.789 400.491 191.971 402.519 191.129 404.512L189.848 407.465L188.662 410.11L188.306 410.905C183.218 422.16 188.235 435.407 199.49 440.495C210.496 445.465 223.412 440.756 228.737 430.023L229.722 428.042L230.587 426.251L232.236 422.729C233.303 420.393 234.335 418.056 235.343 415.708C237.348 411.023 239.245 406.315 241.036 401.535C244.606 391.988 247.772 382.239 250.382 372.11C251.674 367.046 252.837 361.911 253.809 356.645C254.782 351.391 255.564 346.018 256.074 340.504C256.217 339.14 256.3 337.728 256.407 336.341C256.454 335.641 256.513 334.941 256.549 334.241L256.632 332.119L256.715 329.996C256.739 329.308 256.727 328.667 256.739 328.003C256.739 326.687 256.774 325.346 256.75 324.066C256.75 318.871 256.561 313.866 256.347 308.873C255.897 298.922 255.185 289.185 254.367 279.519C254.165 277.219 253.963 274.918 253.75 272.629C253.548 270.423 253.335 268.205 253.109 265.999C252.611 260.876 252.078 255.776 251.532 250.676C250.5 241.105 249.385 231.558 248.199 222.034L246.373 207.743L245.412 200.591L244.416 193.368C242.518 179.634 229.84 170.04 216.094 171.937C202.361 173.835 192.766 186.513 194.663 200.247L194.64 200.212Z" fill="#E5936A"/>
<path d="M204.163 267.043C204.65 271.075 205.136 275.119 205.587 279.14L253.703 272.593C253.501 270.387 253.287 268.169 253.062 265.963L204.163 267.043Z" fill="#C56942"/>
<path d="M192.861 203.153L198.696 272.854L259.858 268.537C259.858 268.537 257.237 195.586 241.392 179.587C232.615 170.728 224.088 167.81 213.058 171.593C199.894 176.1 191.698 189.277 192.861 203.141V203.153Z" fill="#BF1313"/>
<path d="M113.588 129.656C113.588 129.656 91.422 116.219 73.8099 123.359C56.1978 130.51 43.6499 157.943 43.6499 157.943L90.8171 168.024L113.588 129.656Z" fill="#00B3AA"/>
<path d="M61.1555 195.729C61.1555 195.729 29.2046 157.385 11.0114 190.214C-8.58132 225.58 6.9197 253.19 6.9197 253.19L38.3843 234.096L61.1555 195.729Z" fill="#00B3AA"/>
<path d="M158.941 134.495C158.941 134.495 109.603 91.0877 47.4689 153.993C-14.6656 216.899 -8.13075 311.387 26.3226 342.899C60.764 374.423 112.735 357.013 112.735 357.013L158.953 134.495H158.941Z" fill="#043B7B"/>
<path d="M229.176 562.535L228.927 575.296H152.169C152.169 574.395 152.169 573.908 152.169 573.908C151.374 546.749 142.906 478.044 138.068 440.46C137.664 437.34 137.285 434.447 136.941 431.802C135.589 421.401 134.711 414.937 134.711 414.937L219.071 404.725L229.188 562.546L229.176 562.535Z" fill="#023E7D"/>
<path d="M168.726 571.738C168.726 571.833 168.631 573.09 168.5 575.296H164.871C164.99 573.351 165.073 572.094 165.096 571.655C162.001 544.816 149.216 441.432 149.085 440.388C148.967 439.392 149.667 438.491 150.663 438.372C151.659 438.254 152.56 438.953 152.679 439.95C152.809 440.993 165.642 544.816 168.714 571.406C168.726 571.513 168.726 571.631 168.714 571.738H168.726Z" fill="#2A4351"/>
<path d="M61.452 368.125C61.452 368.125 53.7193 409.825 59.7441 435.419C59.7441 435.419 178 446.081 220.661 429.797C220.661 429.797 220.115 388.193 215.454 367.983L61.4401 368.125H61.452Z" fill="#023E7D"/>
<path d="M138.803 432.027C138.803 432.027 138.542 435.075 138.067 440.471C136.134 462.436 130.726 523.302 125.674 575.308H53.7073L58.4869 422.278L136.941 431.802L138.803 432.027Z" fill="#023E7D"/>
<path d="M136.609 363.239C136.585 363.69 136.573 364.141 136.549 364.603C136.039 376.724 135.399 393.885 135.067 411.391C135.043 412.351 135.031 413.324 135.008 414.296C134.913 419.883 134.853 425.48 134.842 430.936C134.842 431.707 135.458 432.336 136.229 432.347C137 432.347 137.629 431.719 137.641 430.948C137.652 425.682 137.712 420.286 137.807 414.889C137.818 413.941 137.842 412.992 137.854 412.043C138.186 394.419 138.827 377.115 139.337 364.888C139.36 364.33 139.384 363.785 139.408 363.239H136.597H136.609Z" fill="#2A4351"/>
<path d="M148.125 363.239C148.089 363.986 148.054 364.757 148.018 365.54C147.271 381.397 146.12 403.836 145.361 409.137C145.195 410.359 144.685 411.165 143.784 411.675C142.337 412.482 140.096 412.434 137.866 412.043C136.917 411.877 135.956 411.652 135.067 411.391C133.442 410.928 132.007 410.383 131.153 410.015C130.442 409.707 129.611 410.015 129.303 410.738C128.995 411.45 129.315 412.28 130.026 412.589C130.477 412.778 132.481 413.632 135.008 414.296C135.897 414.534 136.846 414.735 137.807 414.889C138.696 415.02 139.586 415.115 140.475 415.115C142.171 415.127 143.808 414.866 145.148 414.119C146.82 413.193 147.852 411.604 148.149 409.529C148.931 404.061 150.082 381.587 150.829 365.682C150.876 364.84 150.912 364.034 150.948 363.227H148.125V363.239Z" fill="#2A4351"/>
<path d="M127.109 438.953C127.05 439.938 121.772 524.855 117.941 575.308H114.312C118.143 524.938 123.432 439.712 123.492 438.728C123.551 437.732 124.405 436.973 125.413 437.044C126.409 437.103 127.168 437.957 127.109 438.953Z" fill="#2A4351"/>
<path d="M225.986 256.108C225.393 258.93 224.788 262.417 224.159 266.45C223.946 267.837 223.72 269.284 223.495 270.779C221.621 283.35 219.498 299.907 216.759 317.033C216.509 318.563 216.26 320.116 215.999 321.658C209.903 358.519 222.439 365.789 219.581 377.625C210.556 415.115 73.039 401.855 59.7321 384.955C53.4938 377.02 58.9375 301.852 67.8918 254.91C68.1883 253.321 68.4848 251.755 68.7694 250.225C71.1889 237.452 73.0628 226.956 73.6439 220.777C76.3124 192.052 82.7998 161.761 88.2791 149.012C93.7466 136.262 142.574 130.119 142.574 130.119L193.549 138.646C193.549 138.646 218.609 149.356 235.841 170.823C253.074 192.301 232.212 226.232 225.95 256.084L225.986 256.108Z" fill="#EE1413"/>
<path d="M68.0342 386.141C67.3107 386.141 66.6822 385.595 66.5991 384.86C61.1554 335.51 75.1976 216.495 75.3399 215.298C75.4348 214.503 76.1583 213.945 76.9411 214.04C77.7357 214.135 78.2931 214.847 78.1982 215.641C78.0559 216.839 64.0492 335.522 69.4574 384.552C69.5404 385.346 68.9711 386.058 68.1884 386.141C68.1291 386.141 68.0816 386.141 68.0342 386.141Z" fill="#AD1717"/>
<path d="M187.002 366.263C156.118 366.263 132.991 358.009 118.309 350.478C99.7715 340.966 90.5444 330.767 90.1649 330.34C89.6312 329.747 89.6905 328.833 90.2835 328.311C90.8765 327.778 91.7897 327.837 92.3116 328.43C92.4064 328.537 101.634 338.725 119.756 347.999C136.466 356.55 164.361 366.038 202.42 362.717C203.214 362.646 203.914 363.239 203.985 364.022C204.056 364.817 203.463 365.516 202.681 365.587C197.261 366.062 192.03 366.275 187.014 366.275L187.002 366.263Z" fill="#AD1717"/>
<path d="M101.835 233.23C101.752 233.23 101.669 233.206 101.574 233.182C100.851 232.993 100.424 232.245 100.614 231.522C104.943 215.345 116.909 178.235 117.028 177.856C117.253 177.144 118.024 176.753 118.736 176.978C119.447 177.203 119.839 177.974 119.613 178.686C119.495 179.053 107.552 216.104 103.235 232.222C103.069 232.862 102.464 233.265 101.823 233.23H101.835Z" fill="#AD1717"/>
<path d="M210.402 148.099C210.402 148.099 216.213 183.857 193.015 215.938C169.817 248.031 100.412 265.252 68.1647 253.546C68.1647 253.546 61.6061 263.817 64.2034 277.23C64.2034 277.23 128.912 299.847 186.136 254.72C244.902 208.383 227.907 162.117 227.907 162.117C225.037 156.614 216.32 147.174 210.402 148.099Z" fill="#043B7B"/>
<path d="M200.368 207.719C204.436 209.415 210.532 212.427 215.608 216.863C218.36 219.271 218.597 223.481 216.189 226.232C210.805 232.364 201.009 243.169 193.596 249.288C191.378 251.127 188.14 251.02 186.029 249.063L174.312 238.211C171.797 235.886 171.857 231.89 174.442 229.648C179.744 225.035 188.152 217.219 193.466 209.688C195.007 207.494 197.889 206.687 200.356 207.719H200.368Z" fill="#00B3AA"/>
<path d="M125.365 300.607C125.484 300.642 125.614 300.666 125.745 300.666C154.861 302.03 186.077 272.878 187.393 271.644C188.081 270.992 188.117 269.901 187.464 269.213C186.812 268.525 185.721 268.49 185.033 269.142C184.725 269.438 153.557 298.531 125.911 297.238C124.962 297.191 124.156 297.926 124.12 298.875C124.085 299.693 124.618 300.405 125.377 300.607H125.365Z" fill="#89420F"/>
<path d="M173.659 167.288C152.904 165.438 135.612 139.5 134.877 138.397C134.379 137.638 134.581 136.606 135.352 136.108C136.111 135.61 137.142 135.812 137.652 136.583C137.818 136.844 154.802 162.295 173.956 164.003H173.98C187.559 165.201 194.13 151.586 194.402 151.004C194.794 150.174 195.778 149.818 196.608 150.21C197.439 150.601 197.794 151.586 197.403 152.416C197.095 153.08 189.599 168.723 173.695 167.312H173.671L173.659 167.288Z" fill="#AD1717"/>
<path d="M220.862 268.359C220.779 268.359 220.696 268.335 220.601 268.312C219.878 268.122 219.451 267.375 219.64 266.651C223.969 250.474 235.936 213.364 236.055 212.985C236.28 212.273 237.051 211.882 237.763 212.107C238.474 212.333 238.866 213.103 238.64 213.815C238.522 214.183 226.579 251.233 222.262 267.351C222.096 267.991 221.491 268.395 220.85 268.359H220.862Z" fill="#AD1717"/>
<path d="M143.618 34.8121C143.618 34.8121 124.345 45.6995 126.836 52.436C129.327 59.1725 145.954 45.8893 145.954 45.8893L143.618 34.8121Z" fill="#89420F"/>
<path d="M138.447 46.6602C138.447 46.6602 126.86 53.7762 127.643 61.1768C128.307 67.344 132.493 65.4939 132.493 65.4939C132.493 65.4939 124.049 71.1392 126.196 77.3539C128.342 83.5567 132.138 82.2402 132.138 82.2402C132.138 82.2402 124.476 92.9616 132.138 98.8561C139.799 104.75 146.88 92.3805 146.88 92.3805L152.62 49.4236L149.797 35.9743C144.982 39.5561 140.107 43.1496 138.447 46.6958V46.6602Z" fill="#352A24"/>
<path d="M195.162 127.996L193.276 141.896C191.568 142.999 189.872 143.936 188.2 144.719C163.602 156.152 141.625 134.887 141.625 134.887L144.768 103.707L189.564 123.074L195.173 127.996H195.162Z" fill="#E5936A"/>
<path d="M195.162 127.996L193.276 141.896C191.568 142.999 189.872 143.936 188.2 144.719C170.042 133.962 158.941 110.491 158.941 110.491L189.564 123.062L195.173 127.984L195.162 127.996Z" fill="#FF5623"/>
<path d="M217.375 78.3145C217.375 78.3145 225.962 70.5699 228.963 79.8919C231.963 89.202 226.341 106.47 215.466 102.035L217.375 78.3145Z" fill="#C56942"/>
<path d="M221.74 104.027C221.74 104.027 217.435 131.103 189.421 127.237C161.574 123.406 145.634 104.845 144.78 103.707C144.768 103.683 144.757 103.671 144.757 103.671L145.219 97.9666L147.627 68.364L148.908 52.5428C148.908 52.5428 149.192 23.7704 176.767 22.2642C196.917 21.1612 214.897 26.9251 222.795 38.4293C223.056 38.797 223.294 39.1765 223.519 39.5679C225.962 43.5647 227.219 48.2138 227.018 53.456L224.053 81.7895L223.329 88.7395L221.728 104.039L221.74 104.027Z" fill="#E5936A"/>
<path d="M184.286 34.729C181.214 34.4444 178.249 36.2471 177.348 39.2003C176.707 41.2995 174.999 43.6596 170.991 45.4979C161.621 49.8031 162.155 57.5358 163.27 64.047C164.397 70.5581 150.343 80.39 144.804 63.8453C139.277 47.2888 150.758 15.5633 173.956 17.1288C197.154 18.6943 226.531 30.2815 227.658 41.0267C228.785 51.7718 226.009 60.4652 226.009 60.4652C226.009 60.4652 222.724 56.7886 223.898 50.3012C225.084 43.8138 220.898 40.6235 213.438 38.5717C208.35 37.1722 193.335 35.6067 184.286 34.7528V34.729Z" fill="#352A24"/>
<path d="M199.312 84.7782C205.883 85.6677 208.717 81.3863 208.836 81.1965C209.014 80.9119 209.061 80.5679 208.955 80.2477C205.705 70.3565 202.443 60.1924 202.408 60.0976C202.218 59.5046 201.59 59.1843 200.997 59.3741C200.404 59.5639 200.083 60.1925 200.273 60.7855C200.309 60.8803 203.452 70.6648 206.63 80.3782C205.871 81.2202 203.677 83.1178 199.597 82.5604C198.98 82.4774 198.423 82.9043 198.34 83.5211C198.257 84.1378 198.684 84.6952 199.301 84.7782H199.312Z" fill="#352A24"/>
<path d="M223.329 88.7276C222.629 88.7039 221.894 88.6327 221.135 88.5378C216.154 87.8618 212.335 85.7152 212.596 83.7583C212.857 81.8014 217.114 80.7577 222.095 81.4337C222.771 81.5286 223.424 81.6472 224.041 81.7895L223.317 88.7276H223.329Z" fill="#C56942"/>
<path d="M187.037 80.2951C186.776 82.252 182.519 83.2957 177.526 82.6197C172.544 81.9437 168.714 79.8089 168.986 77.8401C169.259 75.8832 173.505 74.8395 178.498 75.5156C183.479 76.1916 187.31 78.3264 187.037 80.2951Z" fill="#C56942"/>
<path d="M175.308 53.5746C176.304 56.9191 179.791 58.8523 183.147 57.9153C185.104 57.3698 187.405 56.8835 189.777 56.6938C193.145 56.421 195.612 53.4204 195.161 50.064C195.161 50.064 182.282 47.099 175.308 53.5746Z" fill="#352A24"/>
<path d="M225.986 60.4534C224.136 63.4065 220.257 64.3435 217.269 62.5526C215.525 61.5089 213.438 60.4178 211.208 59.6113C208.03 58.4609 206.464 54.891 207.781 51.7837C207.781 51.7837 220.993 52.3649 225.986 60.4534Z" fill="#352A24"/>
<path d="M183.385 84.8613C183.076 84.7901 182.756 84.7071 182.448 84.6122C174.181 82.1809 169.437 73.4757 171.869 65.2092C173.043 61.2006 175.711 57.9035 179.376 55.8991C183.041 53.9067 187.263 53.4441 191.272 54.6301C199.538 57.0614 204.282 65.7667 201.851 74.0331C199.514 81.9911 191.366 86.6758 183.385 84.8613ZM189.789 56.8242C183.088 55.2943 176.233 59.2318 174.264 65.9208C172.224 72.8708 176.209 80.1884 183.159 82.2283C190.109 84.2683 197.427 80.2833 199.467 73.3333C201.507 66.3834 197.522 59.0658 190.572 57.0258C190.311 56.9547 190.05 56.8835 189.789 56.8242Z" fill="#F0EAE0"/>
<path d="M219.486 88.1821C219.166 88.1109 218.858 88.0279 218.538 87.933C214.529 86.7588 211.232 84.0903 209.228 80.4256C207.235 76.7609 206.773 72.5387 207.959 68.53C210.39 60.2636 219.107 55.5196 227.361 57.9509C235.628 60.3822 240.372 69.0875 237.941 77.3539C236.766 81.3625 234.098 84.6596 230.433 86.664C227.053 88.5023 223.211 89.036 219.486 88.1821ZM225.879 60.145C219.178 58.6151 212.323 62.5526 210.354 69.2416C209.358 72.6099 209.738 76.156 211.422 79.2396C213.106 82.3232 215.881 84.5648 219.249 85.5491C226.211 87.5891 233.517 83.6041 235.557 76.6541C237.597 69.7042 233.612 62.3866 226.662 60.3466C226.401 60.2755 226.14 60.2043 225.879 60.145Z" fill="#F0EAE0"/>
<path d="M200.961 70.8546C200.748 70.8072 200.546 70.7004 200.368 70.5344C199.882 70.06 199.858 69.2772 200.333 68.7791C200.416 68.6961 202.444 66.6206 205.112 66.5968C206.595 66.5968 207.947 67.1899 209.133 68.3877C209.619 68.874 209.607 69.6686 209.133 70.143C208.646 70.6293 207.852 70.6174 207.377 70.143C206.678 69.4314 205.954 69.0875 205.16 69.0875C203.558 69.0875 202.159 70.4988 202.147 70.5107C201.827 70.8309 201.388 70.9495 200.973 70.8546H200.961Z" fill="#F0EAE0"/>
<path d="M142.361 68.1386C142.088 68.0793 141.839 67.9252 141.661 67.688C141.234 67.1424 141.341 66.3597 141.886 65.9446C154.826 55.9229 172.343 62.7661 173.078 63.0507C173.719 63.3116 174.027 64.0351 173.766 64.6637C173.505 65.3041 172.782 65.6125 172.153 65.3634C171.987 65.2922 155.205 58.7692 143.416 67.9133C143.108 68.1505 142.728 68.2217 142.373 68.1386H142.361Z" fill="#F0EAE0"/>
<path d="M183.456 87.1858C183.456 87.1858 184.25 99.5321 193.204 103.659C203.392 108.356 209.014 95.5471 209.014 95.5471L183.456 87.1858Z" fill="#F0EAE0"/>
<path d="M196.11 108.7C196.502 108.7 196.751 108.652 196.798 108.641C197.285 108.558 197.628 108.107 197.545 107.609C197.462 107.122 197.012 106.779 196.514 106.862C196.371 106.885 193.157 107.324 191.224 104.656C190.928 104.252 190.37 104.157 189.967 104.454C189.564 104.75 189.481 105.308 189.765 105.711C191.77 108.475 194.758 108.735 196.099 108.688L196.11 108.7Z" fill="#C56942"/>
<path d="M188.235 69.1942C187.868 71.8864 186.349 73.9026 184.843 73.701C183.337 73.4994 182.412 71.1511 182.78 68.447C183.147 65.7548 184.665 63.7386 186.172 63.9402C187.678 64.1418 188.603 66.4901 188.235 69.1942Z" fill="#352A24"/>
<path d="M214.897 72.8115C214.529 75.5037 213.011 77.5199 211.505 77.3183C209.998 77.1167 209.073 74.7684 209.441 72.0643C209.809 69.3721 211.327 67.3559 212.833 67.5575C214.339 67.7591 215.264 70.1074 214.897 72.8115Z" fill="#352A24"/>
<path d="M212.596 17.0695C212.596 17.0695 205.017 -2.91461 178.7 0.441772C149.346 4.17767 138.459 17.0695 136.585 31.4557C135.34 41.0267 138.459 46.6602 138.459 46.6602C154.197 29.736 182.531 21.9558 212.608 17.0813L212.596 17.0695Z" fill="#FF811A"/>
<path d="M150.105 37.1603C149.821 37.1603 149.56 36.9943 149.441 36.7096C142.728 20.4852 153.497 7.73567 153.604 7.60521C153.865 7.30871 154.316 7.27313 154.624 7.53405C154.92 7.79497 154.956 8.24565 154.695 8.55401C154.588 8.67261 144.401 20.7817 150.769 36.1641C150.924 36.5318 150.746 36.9587 150.378 37.101C150.283 37.1366 150.2 37.1603 150.105 37.1603Z" fill="#89420F"/>
<path d="M167.219 28.4551C167.219 28.4551 230.979 5.28065 252.445 18.4927C273.912 31.7047 227.017 53.456 227.017 53.456C227.017 53.456 236.007 23.4739 167.219 28.4551Z" fill="#043B7B"/>
<path d="M186.966 16.69C196.075 14.911 205.575 14.3417 205.717 14.5552L203.511 9.28934C199.111 8.77936 192.066 9.657 185.662 10.7718C186.195 12.7169 186.563 14.6975 186.966 16.6781V16.69Z" fill="#89420F"/>
<path d="M155.027 93.9579C154.861 94.2425 150.2 101.987 144.768 103.695L144.745 103.659L145.207 97.9547C145.207 97.9547 149.738 97.8005 155.027 93.946V93.9579Z" fill="#352A24"/>
<path d="M152.632 74.5786C152.632 74.5786 143.82 58.6507 134.391 68.9451C126.611 77.4369 135.601 103.517 149.607 96.8992L152.643 74.5786H152.632Z" fill="#E5936A"/>
<path d="M148.718 92.3449C148.718 92.3449 148.801 92.3449 148.836 92.3449C149.453 92.3568 149.963 91.8705 149.987 91.2538C150.307 78.7652 140.534 73.0961 140.119 72.8589C139.586 72.5506 138.898 72.7403 138.589 73.2859C138.281 73.8196 138.471 74.5075 139.016 74.804C139.384 75.0174 148.042 80.0817 147.745 91.1945C147.733 91.7756 148.149 92.25 148.706 92.3331L148.718 92.3449Z" fill="#352A24"/>
<path d="M139.289 84.2208C139.538 84.2564 139.787 84.209 140.024 84.0666C141.092 83.4143 144.282 81.8962 146.12 82.6434C146.69 82.8806 147.342 82.596 147.579 82.0267C147.816 81.4574 147.532 80.8051 146.962 80.5679C143.748 79.2633 139.348 81.8607 138.862 82.1572C138.34 82.4774 138.174 83.1653 138.494 83.699C138.672 83.9955 138.981 84.1852 139.301 84.2208H139.289Z" fill="#352A24"/>
<path d="M210.568 392.308C210.568 392.308 210.686 437.649 217.565 449.722C217.565 449.722 241.155 431.576 236.565 396.352C233.493 372.727 210.568 392.308 210.568 392.308Z" fill="#E5936A"/>
<path d="M215.679 314.578L208.207 317.46L131.853 346.92C130.536 347.43 129.066 346.778 128.556 345.461L82.4677 226.055C81.9577 224.738 82.61 223.267 83.9265 222.757L160.281 193.297L167.753 190.415C169.069 189.905 170.54 190.558 171.05 191.874L217.138 311.281C217.648 312.597 216.984 314.068 215.679 314.578Z" fill="#FFFFFD"/>
<path d="M215.679 314.578L208.208 317.46L160.281 193.285L167.753 190.403C169.07 189.893 170.54 190.546 171.05 191.862L217.138 311.269C217.648 312.585 216.984 314.056 215.679 314.566V314.578Z" fill="#1E6CBF"/>
<path d="M152.819 220.192L110.319 236.592C109.329 236.974 108.836 238.086 109.218 239.076L113.21 249.422C113.592 250.412 114.704 250.904 115.694 250.522L158.194 234.123C159.184 233.741 159.677 232.629 159.295 231.639L155.303 221.293C154.921 220.303 153.809 219.81 152.819 220.192Z" fill="#F0EAE0"/>
<path d="M154.49 211.895L100.999 233.932L114.041 265.591L167.532 243.554L154.49 211.895Z" fill="#243F79"/>
<path d="M155.561 214.467L142.812 231.309L159.641 224.37L162.962 232.435L148.445 238.425L166.508 241.022L167.54 243.536L163.318 245.28L140.321 241.959L144.828 252.894L136.763 256.215L132.244 245.256L118.131 263.888L114.051 265.572L112.984 262.987L123.942 248.517L109.473 254.471L106.152 246.418L123.041 239.456L102.037 236.432L101.005 233.918L105.227 232.174L128.224 235.507L123.717 224.56L131.782 221.239L136.3 232.198L150.414 213.566L154.494 211.882L155.561 214.467Z" fill="white"/>
<path d="M154.885 212.831L138.234 234.843L160.222 225.782L162.392 231.036L142.729 239.136L167.172 242.659L167.54 243.536L166.081 244.141L139.787 240.346L138.269 240.974L143.405 253.451L138.163 255.61L133.015 243.133L131.473 243.773L115.368 265.027L114.051 265.572L113.648 264.611L128.532 244.983L108.892 253.072L106.734 247.818L128.758 238.745L101.373 234.795L101.005 233.918L102.464 233.313L130.655 237.393L125.128 223.979L130.37 221.821L135.909 235.234L153.177 212.427L154.494 211.882L154.885 212.831Z" fill="#A92929"/>
<path d="M122.46 269.118C123.847 268.335 131.39 265.525 131.877 265.181C140.238 259.191 139.028 246.94 144.436 243.097C144.436 243.097 171.169 213.341 173.944 220.978C175.462 225.177 171.857 231.202 168.31 235.768C168.761 235.614 169.164 235.471 169.544 235.317C177.632 232.139 187.144 219.911 192.339 224.797C197.545 229.684 189.054 236.93 189.054 236.93C189.054 236.93 195.339 240.215 190.809 249.786C190.809 249.786 195.719 253.878 192.73 260.01C192.73 260.01 197.794 266.011 193.323 271.68C189.516 276.495 172.046 285.295 142.693 295.685C133.347 290.016 126.99 283.077 122.46 269.142V269.118Z" fill="#E5936A"/>
<path d="M104.717 200.781L95.6324 223.422C92.5844 230.976 89.5483 238.531 86.5596 246.086C83.5827 253.641 80.594 261.172 77.7238 268.679L75.5772 274.289L73.4898 279.863L71.5092 285.355C71.1771 286.268 70.9043 287.122 70.596 287.999L70.1453 289.316L69.92 289.968L69.8132 290.3L69.7895 290.383L69.8132 290.312L69.8844 290.004C69.9674 289.624 70.0742 289.067 70.1334 288.533C70.1809 288.225 70.2046 287.904 70.2165 287.584C70.2402 287.24 70.252 286.849 70.2402 286.493C70.2402 284.951 69.9674 282.983 69.2439 281.002C68.5442 279.021 67.3938 277.159 66.2434 275.831C65.0811 274.479 63.9781 273.613 63.1005 273.044C62.211 272.475 61.618 272.19 61.1317 271.988C60.6455 271.799 60.3964 271.727 60.2066 271.692C59.8746 271.621 59.9339 271.704 60.2066 271.775C60.7641 271.929 61.9975 272.095 63.3851 272.178C64.7846 272.261 66.3857 272.273 68.0579 272.237C71.4143 272.166 75.0672 271.893 78.7913 271.514C82.5153 271.123 86.3223 270.648 90.165 270.103C97.8503 269 105.666 267.612 113.482 266.082C117.396 265.335 121.309 264.552 125.223 263.722L131.082 262.465L136.822 261.196L137.202 261.113C146.453 259.073 155.608 264.92 157.648 274.171C159.546 282.793 154.529 291.344 146.358 294.131L143.262 295.175L140.25 296.171L134.213 298.08C130.192 299.337 126.148 300.547 122.092 301.721C113.956 304.034 105.749 306.204 97.3166 308.138C93.0944 309.098 88.8248 310.011 84.4248 310.782C80.0247 311.565 75.5297 312.253 70.7027 312.727C68.2833 312.965 65.7808 313.131 63.0768 313.178C60.3608 313.214 57.4907 313.178 53.992 312.727C52.2486 312.502 50.2917 312.146 48.0027 311.494C46.8285 311.15 45.607 310.747 44.1838 310.13C42.7724 309.513 41.2544 308.766 39.5228 307.604C37.8031 306.453 35.9173 304.912 34.0909 302.777C32.2763 300.666 30.6041 297.902 29.5723 294.961C28.5049 292.02 28.0897 289.019 28.0779 286.458C28.0779 285.841 28.0898 285.189 28.1253 284.596C28.1609 284.026 28.2202 283.457 28.2914 282.888C28.4337 281.844 28.6234 280.777 28.8369 279.911L29.845 275.997C30.1297 274.918 30.4143 273.791 30.6989 272.759L32.4542 266.521L34.2451 260.413L36.0715 254.388C38.5621 246.394 41.0527 238.46 43.6738 230.597C46.283 222.734 48.9041 214.882 51.5726 207.067L55.6524 195.361L57.716 189.514L59.8271 183.655C64.322 171.178 78.0797 164.715 90.5445 169.21C103.021 173.705 109.485 187.462 104.99 199.939C104.907 200.176 104.812 200.413 104.717 200.65L104.646 200.816L104.717 200.781Z" fill="#E5936A"/>
<path d="M61.1436 280.575C60.8234 280.575 60.5032 280.468 60.2423 280.255C59.6255 279.757 59.5306 278.843 60.0288 278.227C64.0137 273.305 75.8974 270.031 76.4074 269.901C77.1783 269.687 77.9611 270.15 78.1746 270.909C78.3881 271.68 77.9255 272.463 77.1665 272.676C73.9761 273.542 65.093 276.554 62.2703 280.041C61.9857 280.397 61.5706 280.575 61.1555 280.575H61.1436Z" fill="#C56942"/>
<path d="M73.8574 272.736C73.632 272.736 73.3948 272.676 73.1814 272.569C68.2595 269.948 61.2621 270.114 61.1909 270.114C60.3844 270.126 59.7321 269.51 59.7084 268.715C59.6847 267.92 60.3133 267.256 61.1079 267.232C61.4281 267.232 68.9474 267.055 74.5334 270.02C75.2332 270.387 75.5059 271.265 75.1264 271.965C74.8655 272.451 74.3674 272.736 73.8574 272.736Z" fill="#C56942"/>
<path d="M90.7223 145.774C90.7223 145.774 70.0147 149.676 57.0636 176.919C44.1125 204.161 39.4634 222.769 39.4634 222.769L94.5649 238.721C94.5649 238.721 140.985 143.545 90.7223 145.774Z" fill="#EE1413"/>
</svg>
