<svg width="40" height="40" viewBox="0 0 40 40" fill="none" xmlns="http://www.w3.org/2000/svg">
<path fill-rule="evenodd" clip-rule="evenodd" d="M20 0C8.95431 0 0 8.95431 0 20C0 31.0457 8.95431 40 20 40C31.0457 40 40 31.0457 40 20C40 8.95431 31.0457 0 20 0ZM23.8978 10C23.8978 10.2972 23.9255 10.5899 23.9766 10.8731C24.2226 12.1826 24.9975 13.3063 26.074 14.0074C26.8256 14.4996 27.7164 14.7829 28.6768 14.7829L28.6767 15.5491V18.2191C26.895 18.2191 25.2433 17.648 23.8977 16.6821V23.6707C23.8977 27.1581 21.0583 30 17.5739 30C16.2284 30 14.9756 29.5727 13.9502 28.8529C12.3171 27.706 11.25 25.8114 11.25 23.6707C11.25 20.1787 14.0848 17.3416 17.5692 17.3461C17.8615 17.3461 18.1446 17.3694 18.4229 17.4066V18.2191L18.4128 18.224L18.4229 18.2238V20.9171C18.1538 20.8335 17.8662 20.7824 17.5692 20.7824C15.9778 20.7824 14.6833 22.078 14.6833 23.6707C14.6833 24.7806 15.3143 25.7418 16.233 26.2294C16.2416 26.2411 16.2502 26.2528 16.259 26.2644L16.2744 26.2847C16.2638 26.2643 16.2516 26.2443 16.2377 26.2247C16.6413 26.4383 17.096 26.5591 17.5785 26.5591C19.1327 26.5591 20.4041 25.3193 20.4597 23.7776L20.4644 10H23.8978Z" fill="#37C6FF"/>
</svg>
