<svg width="467" height="528" viewBox="0 0 467 528" fill="none" xmlns="http://www.w3.org/2000/svg">
<g style="mix-blend-mode:multiply" opacity="0.28">
<path d="M455.485 283.792L327.352 283.009L325.547 578.531L453.68 579.314L455.485 283.792Z" fill="#EACB98"/>
<g opacity="0.55">
<g style="mix-blend-mode:multiply" opacity="0.45">
<path d="M339.711 283.262L334.291 283.229L332.482 579.356L337.902 579.389L339.711 283.262Z" fill="#DCAD71"/>
</g>
<g style="mix-blend-mode:multiply" opacity="0.45">
<path d="M355.247 283.369L349.827 283.336L348.018 579.463L353.438 579.496L355.247 283.369Z" fill="#DCAD71"/>
</g>
<g style="mix-blend-mode:multiply" opacity="0.45">
<path d="M370.794 283.452L365.374 283.419L363.565 579.546L368.985 579.579L370.794 283.452Z" fill="#DCAD71"/>
</g>
<g style="mix-blend-mode:multiply" opacity="0.45">
<path d="M386.33 283.547L380.91 283.514L379.101 579.641L384.521 579.674L386.33 283.547Z" fill="#DCAD71"/>
</g>
<g style="mix-blend-mode:multiply" opacity="0.45">
<path d="M401.877 283.642L396.458 283.609L394.649 579.736L400.068 579.769L401.877 283.642Z" fill="#DCAD71"/>
</g>
<g style="mix-blend-mode:multiply" opacity="0.45">
<path d="M417.437 283.737L412.017 283.704L410.208 579.831L415.628 579.864L417.437 283.737Z" fill="#DCAD71"/>
</g>
<g style="mix-blend-mode:multiply" opacity="0.45">
<path d="M432.973 283.832L427.553 283.799L425.744 579.926L431.164 579.959L432.973 283.832Z" fill="#DCAD71"/>
</g>
<g style="mix-blend-mode:multiply" opacity="0.45">
<path d="M448.52 283.927L443.1 283.894L441.291 580.021L446.711 580.054L448.52 283.927Z" fill="#DCAD71"/>
</g>
</g>
<path d="M392.084 175.77L335.595 283.044L447.269 283.72L392.084 175.77Z" fill="#AB8056"/>
<path d="M411.736 252.67C411.808 241.557 402.853 232.496 391.741 232.437C380.628 232.366 371.567 241.32 371.507 252.433L371.318 283.269L411.547 283.518L411.736 252.682V252.67Z" fill="#8A6240"/>
<path d="M346.64 267.199L327.451 267.082L325.549 578.531L344.738 578.648L346.64 267.199Z" fill="#DCA666"/>
<g style="mix-blend-mode:multiply" opacity="0.45">
<path d="M332.267 267.123L327.44 267.093L325.537 578.543L330.364 578.573L332.267 267.123Z" fill="#DCAD71"/>
</g>
<path d="M346.628 267.204L327.439 267.087L327.416 270.835L346.605 270.952L346.628 267.204Z" fill="#C58446"/>
<path d="M337.244 235.319L321.102 267.021L353.006 267.222L337.244 235.319Z" fill="#AB8056"/>
<path d="M446.19 235.983L430.048 267.685L461.952 267.875L446.19 235.983Z" fill="#AB8056"/>
<path d="M359.79 431.163C355.532 431.139 352.069 434.567 352.045 438.813L351.867 468.309L367.261 468.404L367.439 438.908C367.463 434.65 364.036 431.187 359.79 431.163Z" fill="#B56F39"/>
<path d="M421.284 431.531C417.026 431.507 413.563 434.935 413.539 439.18L413.361 468.676L428.756 468.771L428.934 439.275C428.957 435.018 425.53 431.555 421.284 431.531Z" fill="#B56F39"/>
<path d="M390.602 419.801C382.098 419.754 375.16 426.597 375.113 435.112L374.911 468.463L405.712 468.653L405.913 435.302C405.961 426.799 399.117 419.861 390.602 419.813V419.801Z" fill="#B56F39"/>
<path d="M359.754 436.275C355.496 436.251 352.033 439.679 352.01 443.924L351.867 468.309L367.261 468.404L367.404 444.019C367.428 439.762 364 436.299 359.754 436.275Z" fill="#C88C47"/>
<path d="M421.248 436.654C416.99 436.631 413.527 440.058 413.504 444.304L413.361 468.688L428.756 468.783L428.898 444.399C428.922 440.141 425.494 436.678 421.248 436.654Z" fill="#C88C47"/>
<path d="M390.578 424.913C382.075 424.865 375.137 431.709 375.089 440.224L374.923 468.463L405.724 468.653L405.89 440.414C405.937 431.91 399.094 424.972 390.578 424.925V424.913Z" fill="#C88C47"/>
<path d="M389.985 522.129C381.482 522.082 374.544 528.925 374.496 537.441L374.294 570.791L405.095 570.981L405.296 537.63C405.344 529.127 398.501 522.189 389.985 522.141V522.129Z" fill="#B56F39"/>
<path d="M389.962 527.253C381.458 527.205 374.52 534.049 374.472 542.564L374.306 570.803L405.107 570.992L405.273 542.754C405.32 534.25 398.477 527.312 389.962 527.265V527.253Z" fill="#C88C47"/>
<path d="M360.406 328.384C356.149 328.361 352.685 331.788 352.662 336.034L352.484 365.53L367.878 365.625L368.056 336.129C368.08 331.871 364.652 328.408 360.406 328.384Z" fill="#B56F39"/>
<path d="M421.901 328.752C417.643 328.728 414.18 332.156 414.156 336.402L413.978 365.898L429.372 365.992L429.55 336.497C429.574 332.239 426.146 328.776 421.901 328.752Z" fill="#B56F39"/>
<path d="M391.231 317.022C382.727 316.975 375.789 323.818 375.741 332.334L375.54 365.684L406.34 365.874L406.542 332.523C406.589 324.02 399.746 317.082 391.231 317.034V317.022Z" fill="#B56F39"/>
<path d="M360.383 333.508C356.125 333.484 352.662 336.912 352.638 341.158L352.496 365.542L367.89 365.637L368.032 341.252C368.056 336.995 364.628 333.532 360.383 333.508Z" fill="#C88C47"/>
<path d="M421.877 333.876C417.619 333.852 414.156 337.279 414.132 341.525L413.99 365.909L429.384 366.004L429.526 341.62C429.55 337.362 426.123 333.899 421.877 333.876Z" fill="#C88C47"/>
<path d="M391.195 322.146C382.691 322.099 375.753 328.942 375.706 337.457L375.54 365.696L406.34 365.886L406.506 337.647C406.553 329.143 399.71 322.205 391.195 322.158V322.146Z" fill="#C88C47"/>
<path d="M455.58 267.876L436.391 267.759L434.489 579.209L453.678 579.326L455.58 267.876Z" fill="#DCA666"/>
<g style="mix-blend-mode:multiply" opacity="0.45">
<path d="M455.58 267.864L450.753 267.835L448.85 579.284L453.677 579.314L455.58 267.864Z" fill="#DCAD71"/>
</g>
<path d="M455.58 267.87L436.391 267.753L436.368 271.5L455.557 271.618L455.58 267.87Z" fill="#C58446"/>
<path d="M454.292 477.187L326.159 476.404L326.088 487.932L454.221 488.715L454.292 477.187Z" fill="#C58446"/>
<path d="M454.271 480.579L326.138 479.796L326.109 484.528L454.242 485.311L454.271 480.579Z" fill="#89421C"/>
<path d="M454.931 374.402L326.798 373.62L326.728 385.147L454.861 385.93L454.931 374.402Z" fill="#C58446"/>
<path d="M454.911 377.806L326.778 377.023L326.749 381.755L454.882 382.538L454.911 377.806Z" fill="#89421C"/>
</g>
<g style="mix-blend-mode:multiply" opacity="0.28">
<path d="M146.868 383.057L7.43457 381.962L6.62288 485.307L146.057 486.402L146.868 383.057Z" fill="#E3BA7C"/>
<path d="M146.068 486.408L6.63477 485.313L5.82308 588.657L145.257 589.753L146.068 486.408Z" fill="#E3BA7C"/>
<g style="mix-blend-mode:multiply" opacity="0.45">
<path d="M20.46 382.07L14.5183 382.023L12.0368 697.976L17.9785 698.022L20.46 382.07Z" fill="#DCAD71"/>
</g>
<g style="mix-blend-mode:multiply" opacity="0.45">
<path d="M37.5132 382.204L31.5715 382.157L29.09 698.11L35.0317 698.156L37.5132 382.204Z" fill="#DCAD71"/>
</g>
<g style="mix-blend-mode:multiply" opacity="0.45">
<path d="M54.5662 382.338L48.6245 382.291L46.143 698.243L52.0847 698.29L54.5662 382.338Z" fill="#DCAD71"/>
</g>
<g style="mix-blend-mode:multiply" opacity="0.45">
<path d="M71.6075 382.471L65.6658 382.425L63.1842 698.377L69.1259 698.424L71.6075 382.471Z" fill="#DCAD71"/>
</g>
<g style="mix-blend-mode:multiply" opacity="0.45">
<path d="M88.6487 382.605L82.707 382.559L80.2255 698.511L86.1672 698.558L88.6487 382.605Z" fill="#DCAD71"/>
</g>
<g style="mix-blend-mode:multiply" opacity="0.45">
<path d="M105.702 382.739L99.7603 382.692L97.2787 698.645L103.22 698.692L105.702 382.739Z" fill="#DCAD71"/>
</g>
<g style="mix-blend-mode:multiply" opacity="0.45">
<path d="M122.731 382.873L116.79 382.826L114.308 698.779L120.25 698.826L122.731 382.873Z" fill="#DCAD71"/>
</g>
<g style="mix-blend-mode:multiply" opacity="0.45">
<path d="M139.772 383.007L133.831 382.96L131.349 698.913L137.291 698.959L139.772 383.007Z" fill="#DCAD71"/>
</g>
<path d="M34.5884 485.529L23.0842 485.434L23.7958 395.204C23.8196 392.025 26.4169 389.475 29.5954 389.499C32.7739 389.523 35.3238 392.12 35.3 395.298L34.5884 485.529ZM48.5951 389.653C45.4166 389.629 42.8193 392.179 42.7956 395.358L42.084 485.589L53.5881 485.683L54.2997 395.453C54.3235 392.274 51.7736 389.677 48.5951 389.653ZM70.0261 389.819L65.1516 389.784C63.3252 389.772 61.8308 391.242 61.8071 393.069L61.0718 485.743L72.576 485.838L73.3113 393.164C73.3232 391.337 71.8526 389.843 70.0261 389.819ZM89.0258 389.973L84.1514 389.938C82.3249 389.926 80.8306 391.396 80.8069 393.223L80.0715 485.897L91.5757 485.992L92.3111 393.318C92.3229 391.491 90.8523 389.997 89.0258 389.973ZM105.582 390.104C102.404 390.08 99.8066 392.63 99.7829 395.808L99.0712 486.039L110.575 486.134L111.287 395.903C111.311 392.725 108.761 390.127 105.582 390.104ZM124.582 390.258C121.404 390.234 118.806 392.784 118.783 395.963L118.071 486.193L129.575 486.288L130.287 396.057C130.31 392.879 127.761 390.282 124.582 390.258Z" fill="#BB773B"/>
<path d="M48.5833 389.653C45.4048 389.629 42.8074 392.239 42.7837 395.488L42.76 399.011C42.7837 395.761 45.3811 393.14 48.5595 393.176C51.738 393.199 54.2879 395.856 54.2642 399.106L54.2879 395.583C54.3117 392.333 51.7617 389.677 48.5833 389.653Z" fill="#89421C"/>
<path d="M29.5955 389.499C26.417 389.475 23.8197 392.084 23.7959 395.334L23.7722 398.856C23.7959 395.607 26.3933 392.986 29.5718 393.021C32.7502 393.045 35.3001 395.702 35.2764 398.951L35.3001 395.429C35.3239 392.179 32.774 389.523 29.5955 389.499Z" fill="#89421C"/>
<path d="M67.583 389.795C64.4045 389.772 61.8072 392.381 61.7835 395.631L61.7598 399.153C61.7835 395.903 64.3808 393.282 67.5593 393.318C70.7378 393.353 73.2877 395.998 73.264 399.248L73.2877 395.725C73.3114 392.476 70.7615 389.819 67.583 389.795Z" fill="#89421C"/>
<path d="M124.57 390.246C121.392 390.222 118.795 392.832 118.771 396.081L118.747 399.604C118.771 396.354 121.368 393.733 124.547 393.769C127.725 393.792 130.275 396.449 130.251 399.699L130.275 396.176C130.299 392.926 127.749 390.27 124.57 390.246Z" fill="#89421C"/>
<path d="M105.583 390.104C102.404 390.08 99.8067 392.689 99.783 395.939L99.7593 399.461C99.783 396.212 102.38 393.591 105.559 393.626C108.737 393.65 111.287 396.307 111.263 399.556L111.287 396.034C111.311 392.784 108.761 390.128 105.583 390.104Z" fill="#89421C"/>
<path d="M86.5828 389.95C83.4043 389.926 80.807 392.535 80.7832 395.785L80.7595 399.307C80.7832 396.057 83.3806 393.436 86.5591 393.472C89.7375 393.496 92.2874 396.152 92.2637 399.402L92.2874 395.88C92.3112 392.63 89.7613 389.973 86.5828 389.95Z" fill="#89421C"/>
<path d="M33.7701 588.877L22.2659 588.782L22.93 504.873C22.9537 501.694 25.5511 499.145 28.7296 499.168C31.908 499.192 34.4579 501.789 34.4342 504.968L33.7701 588.877ZM47.7174 499.311C44.5389 499.287 41.9416 501.837 41.9179 505.015L41.2537 588.925L52.7579 589.02L53.4221 505.11C53.4458 501.932 50.8959 499.334 47.7174 499.311ZM69.1484 499.477L64.274 499.441C62.4475 499.429 60.9532 500.9 60.9295 502.726L60.2534 589.079L71.7576 589.174L72.4337 502.821C72.4455 500.995 70.9749 499.5 69.1484 499.477ZM88.1482 499.631L83.2737 499.595C81.4473 499.583 79.9529 501.054 79.9292 502.881L79.2532 589.233L90.7574 589.328L91.4334 502.975C91.4452 501.149 89.9746 499.655 88.1482 499.631ZM104.705 499.761C101.526 499.738 98.9289 502.287 98.9052 505.466L98.241 589.375L109.745 589.47L110.409 505.561C110.433 502.382 107.883 499.785 104.705 499.761ZM123.704 499.916C120.526 499.892 117.929 502.442 117.905 505.62L117.241 589.53L128.745 589.625L129.409 505.715C129.433 502.537 126.883 499.939 123.704 499.916Z" fill="#BB773B"/>
<path d="M47.7293 499.311C44.5508 499.287 41.9535 501.896 41.9297 505.146L41.906 508.668C41.9297 505.419 44.5271 502.797 47.7055 502.833C50.884 502.857 53.4339 505.513 53.4102 508.763L53.4339 505.241C53.4576 501.991 50.9078 499.334 47.7293 499.311Z" fill="#89421C"/>
<path d="M28.7295 499.168C25.551 499.145 22.9537 501.754 22.93 505.003L22.9062 508.526C22.93 505.276 25.5273 502.655 28.7058 502.691C31.8843 502.714 34.4342 505.371 34.4104 508.621L34.4342 505.098C34.4579 501.849 31.908 499.192 28.7295 499.168Z" fill="#89421C"/>
<path d="M66.7171 499.465C63.5386 499.441 60.9412 502.05 60.9175 505.3L60.8938 508.822C60.9175 505.573 63.5149 502.952 66.6933 502.987C69.8718 503.011 72.4217 505.668 72.398 508.917L72.4217 505.395C72.4454 502.145 69.8955 499.489 66.7171 499.465Z" fill="#89421C"/>
<path d="M123.704 499.916C120.526 499.892 117.929 502.501 117.905 505.751L117.881 509.273C117.905 506.023 120.502 503.402 123.681 503.438C126.859 503.462 129.409 506.118 129.385 509.368L129.409 505.846C129.433 502.596 126.883 499.939 123.704 499.916Z" fill="#89421C"/>
<path d="M104.717 499.761C101.538 499.738 98.9408 502.347 98.917 505.596L98.8933 509.119C98.917 505.869 101.514 503.248 104.693 503.284C107.871 503.307 110.421 505.964 110.398 509.214L110.421 505.691C110.445 502.442 107.895 499.785 104.717 499.761Z" fill="#89421C"/>
<path d="M85.7168 499.619C82.5383 499.595 79.941 502.204 79.9173 505.454L79.8936 508.977C79.9173 505.727 82.5146 503.106 85.6931 503.141C88.8716 503.165 91.4215 505.822 91.3978 509.071L91.4215 505.549C91.4452 502.299 88.8953 499.643 85.7168 499.619Z" fill="#89421C"/>
<path d="M146.103 480.493L6.66919 479.398L6.57623 491.234L146.01 492.329L146.103 480.493Z" fill="#C58446"/>
<path d="M146.076 483.98L6.64185 482.884L6.60366 487.747L146.037 488.842L146.076 483.98Z" fill="#89421C"/>
<path d="M6.87162 220.636C6.18374 220.636 5.63818 220.067 5.63818 219.379L5.85166 191.935C5.85166 191.247 6.42094 190.702 7.10882 190.702C7.7967 190.702 8.34226 191.271 8.34226 191.959L8.12878 219.403C8.12878 220.091 7.5595 220.636 6.87162 220.636Z" fill="#C58446"/>
<path d="M11.8764 199.027L2.18681 198.956C1.49893 198.956 0.953369 198.387 0.953369 197.699C0.953369 197.011 1.52265 196.466 2.21053 196.466L11.9001 196.537C12.588 196.537 13.1336 197.106 13.1336 197.794C13.1336 198.482 12.5643 199.027 11.8764 199.027Z" fill="#C58446"/>
<path d="M11.5917 236.517L1.9021 236.446L2.08 214.564C2.10372 211.884 4.28596 209.737 6.96632 209.761C9.64668 209.784 11.7933 211.967 11.7696 214.647L11.5917 236.529V236.517Z" fill="#89421C"/>
<path d="M149.962 221.763C149.275 221.763 148.729 221.194 148.729 220.506L148.942 193.062C148.942 192.374 149.512 191.828 150.2 191.828C150.888 191.828 151.433 192.398 151.433 193.085L151.22 220.53C151.22 221.217 150.65 221.763 149.962 221.763Z" fill="#C58446"/>
<path d="M154.979 200.154L145.29 200.083C144.602 200.083 144.056 199.514 144.056 198.826C144.056 198.138 144.625 197.592 145.313 197.592L155.003 197.663C155.691 197.663 156.236 198.233 156.236 198.921C156.236 199.608 155.667 200.154 154.979 200.154Z" fill="#C58446"/>
<path d="M154.683 237.643L144.993 237.572L145.171 215.691C145.195 213.01 147.377 210.864 150.057 210.887C152.738 210.911 154.884 213.093 154.861 215.774L154.683 237.655V237.643Z" fill="#89421C"/>
<path d="M145.245 204.619L11.8479 203.571L11.5892 236.505L144.986 237.553L145.245 204.619Z" fill="#E3BA7C"/>
<g style="mix-blend-mode:multiply" opacity="0.45">
<path d="M21.8728 203.661L15.9312 203.615L15.6401 240.676L21.5817 240.723L21.8728 203.661Z" fill="#DCAD71"/>
</g>
<g style="mix-blend-mode:multiply" opacity="0.45">
<path d="M38.9141 203.795L32.9724 203.749L32.6813 240.81L38.623 240.857L38.9141 203.795Z" fill="#DCAD71"/>
</g>
<g style="mix-blend-mode:multiply" opacity="0.45">
<path d="M55.9554 203.917L50.0137 203.871L49.7226 240.932L55.6643 240.979L55.9554 203.917Z" fill="#DCAD71"/>
</g>
<g style="mix-blend-mode:multiply" opacity="0.45">
<path d="M72.9966 204.051L67.0549 204.004L66.7638 241.066L72.7055 241.112L72.9966 204.051Z" fill="#DCAD71"/>
</g>
<g style="mix-blend-mode:multiply" opacity="0.45">
<path d="M90.0498 204.197L84.1082 204.15L83.8171 241.211L89.7588 241.258L90.0498 204.197Z" fill="#DCAD71"/>
</g>
<g style="mix-blend-mode:multiply" opacity="0.45">
<path d="M107.091 204.331L101.149 204.284L100.858 241.345L106.8 241.392L107.091 204.331Z" fill="#DCAD71"/>
</g>
<g style="mix-blend-mode:multiply" opacity="0.45">
<path d="M124.132 204.453L118.191 204.406L117.9 241.467L123.841 241.514L124.132 204.453Z" fill="#DCAD71"/>
</g>
<g style="mix-blend-mode:multiply" opacity="0.45">
<path d="M141.173 204.598L135.232 204.552L134.941 241.613L140.882 241.66L141.173 204.598Z" fill="#DCAD71"/>
</g>
<path d="M36.5096 241.166L25.0054 241.071L25.1951 216.592C25.2189 213.413 27.8162 210.864 30.9947 210.887C34.1732 210.911 36.7231 213.508 36.6993 216.687L36.5096 241.166ZM55.699 216.841C55.7228 213.663 53.1729 211.065 49.9944 211.041C46.8159 211.018 44.2186 213.568 44.1949 216.746L44.0051 241.225L55.5093 241.32L55.699 216.841ZM71.4254 211.208L66.5509 211.172C64.7245 211.16 63.2301 212.631 63.2064 214.457L62.9929 241.379L74.4972 241.474L74.7106 214.552C74.7225 212.726 73.2518 211.231 71.4254 211.208ZM90.4251 211.362L85.5507 211.326C83.7242 211.314 82.2299 212.785 82.2062 214.611L81.9927 241.534L93.4969 241.628L93.7104 214.706C93.7222 212.88 92.2516 211.385 90.4251 211.362ZM112.686 217.292C112.71 214.113 110.16 211.516 106.982 211.492C103.803 211.468 101.206 214.018 101.182 217.197L100.992 241.676L112.497 241.771L112.686 217.292ZM131.686 217.446C131.71 214.267 129.16 211.67 125.981 211.646C122.803 211.623 120.206 214.173 120.182 217.351L119.992 241.83L131.496 241.925L131.686 217.446Z" fill="#BB773B"/>
<path d="M49.9944 211.042C46.8159 211.018 44.2186 213.568 44.1949 216.746L44.1711 220.197C44.1949 217.019 46.7922 214.469 49.9707 214.493C53.1492 214.516 55.6991 217.114 55.6753 220.292L55.6991 216.841C55.7228 213.663 53.1729 211.065 49.9944 211.042Z" fill="#89421C"/>
<path d="M68.9942 211.184C65.8157 211.16 63.2183 213.71 63.1946 216.888L63.1709 220.34C63.1946 217.161 65.792 214.611 68.9704 214.635C72.1489 214.659 74.6988 217.256 74.6751 220.435L74.6988 216.983C74.7225 213.805 72.1726 211.208 68.9942 211.184Z" fill="#89421C"/>
<path d="M30.9947 210.887C27.8162 210.864 25.2188 213.413 25.1951 216.592L25.1714 220.043C25.1951 216.865 27.7924 214.315 30.9709 214.339C34.1494 214.362 36.6993 216.96 36.6756 220.138L36.6993 216.687C36.723 213.508 34.1731 210.911 30.9947 210.887Z" fill="#89421C"/>
<path d="M106.982 211.48C103.803 211.457 101.206 214.006 101.182 217.185L101.158 220.636C101.182 217.458 103.78 214.908 106.958 214.932C110.136 214.955 112.686 217.553 112.663 220.731L112.686 217.28C112.71 214.101 110.16 211.504 106.982 211.48Z" fill="#89421C"/>
<path d="M125.981 211.635C122.803 211.611 120.206 214.161 120.182 217.339L120.158 220.79C120.182 217.612 122.779 215.062 125.958 215.086C129.136 215.109 131.686 217.707 131.662 220.885L131.686 217.434C131.71 214.256 129.16 211.658 125.981 211.635Z" fill="#89421C"/>
<path d="M87.9939 211.338C84.8154 211.314 82.2181 213.864 82.1944 217.043L82.1707 220.494C82.1944 217.315 84.7917 214.766 87.9702 214.789C91.1487 214.813 93.6986 217.41 93.6749 220.589L93.6986 217.138C93.7223 213.959 91.1724 211.362 87.9939 211.338Z" fill="#89421C"/>
<path d="M145.242 204.637C145.242 204.637 119.743 193.584 120.04 157.15L37.8025 156.497C37.5178 192.943 11.8528 203.582 11.8528 203.582" fill="#5A3C2C"/>
<path d="M154.688 237.635L1.8999 236.435L0.757265 381.917L153.545 383.117L154.688 237.635Z" fill="#E3BA7C"/>
<g style="mix-blend-mode:multiply" opacity="0.45">
<path d="M10.8596 245.413L6.00903 245.375L5.0063 373.044L9.85689 373.082L10.8596 245.413Z" fill="#DCAD71"/>
</g>
<g style="mix-blend-mode:multiply" opacity="0.45">
<path d="M23.5486 245.512L18.698 245.474L17.6953 373.143L22.5459 373.181L23.5486 245.512Z" fill="#DCAD71"/>
</g>
<g style="mix-blend-mode:multiply" opacity="0.45">
<path d="M36.2378 245.612L31.3872 245.574L30.3845 373.243L35.2351 373.281L36.2378 245.612Z" fill="#DCAD71"/>
</g>
<g style="mix-blend-mode:multiply" opacity="0.45">
<path d="M48.9268 245.712L44.0762 245.674L43.0734 373.343L47.924 373.381L48.9268 245.712Z" fill="#DCAD71"/>
</g>
<g style="mix-blend-mode:multiply" opacity="0.45">
<path d="M61.6157 245.811L56.7651 245.773L55.7624 373.442L60.613 373.48L61.6157 245.811Z" fill="#DCAD71"/>
</g>
<g style="mix-blend-mode:multiply" opacity="0.45">
<path d="M74.3047 245.911L69.4541 245.873L68.4514 373.542L73.302 373.58L74.3047 245.911Z" fill="#DCAD71"/>
</g>
<g style="mix-blend-mode:multiply" opacity="0.45">
<path d="M86.9937 246.011L82.1431 245.973L81.1403 373.642L85.9909 373.68L86.9937 246.011Z" fill="#DCAD71"/>
</g>
<g style="mix-blend-mode:multiply" opacity="0.45">
<path d="M99.6946 246.099L94.844 246.061L93.8413 373.729L98.6918 373.768L99.6946 246.099Z" fill="#DCAD71"/>
</g>
<g style="mix-blend-mode:multiply" opacity="0.45">
<path d="M112.384 246.21L107.533 246.172L106.53 373.841L111.381 373.879L112.384 246.21Z" fill="#DCAD71"/>
</g>
<g style="mix-blend-mode:multiply" opacity="0.45">
<path d="M125.073 246.31L120.222 246.272L119.219 373.941L124.07 373.979L125.073 246.31Z" fill="#DCAD71"/>
</g>
<g style="mix-blend-mode:multiply" opacity="0.45">
<path d="M137.762 246.409L132.911 246.371L131.908 374.04L136.759 374.078L137.762 246.409Z" fill="#DCAD71"/>
</g>
<g style="mix-blend-mode:multiply" opacity="0.45">
<path d="M150.451 246.509L145.6 246.471L144.597 374.14L149.448 374.178L150.451 246.509Z" fill="#DCAD71"/>
</g>
<path d="M154.688 237.64L1.8999 236.44L1.82995 245.346L154.618 246.546L154.688 237.64Z" fill="#89421C"/>
<path d="M154.7 237.64L1.91187 236.44L1.87693 240.887L154.665 242.087L154.7 237.64Z" fill="#C58446"/>
<path d="M153.615 374.218L0.827393 373.018L0.757439 381.925L153.545 383.125L153.615 374.218Z" fill="#89421C"/>
<path d="M153.58 378.666L0.79248 377.466L0.75755 381.913L153.545 383.113L153.58 378.666Z" fill="#C58446"/>
<path d="M133.345 255.021L22.967 254.154L22.1001 364.532L132.478 365.399L133.345 255.021Z" stroke="#89421C" stroke-miterlimit="10"/>
<path d="M128.958 357.821L129.706 262.561C127.5 262.549 125.732 260.747 125.744 258.541L30.4848 257.794C30.4729 260 28.6702 261.767 26.4642 261.755L25.717 357.014C27.923 357.026 29.6901 358.829 29.6783 361.035L124.938 361.782C124.95 359.576 126.752 357.809 128.958 357.821Z" fill="#C58446"/>
<path d="M124.071 316.734C127.893 291.131 110.236 267.278 84.6338 263.457C59.0315 259.635 35.1786 277.292 31.3569 302.894C27.5351 328.496 45.1918 352.349 70.7941 356.171C96.3964 359.993 120.249 342.336 124.071 316.734Z" fill="#FAEFC0"/>
<path d="M117.577 314.497C120.167 292.484 104.421 272.539 82.4069 269.949C60.3932 267.359 40.4481 283.105 37.8581 305.119C35.2682 327.132 51.0143 347.077 73.028 349.667C95.0417 352.257 114.987 336.511 117.577 314.497Z" stroke="#89421C" stroke-width="1.3" stroke-miterlimit="10"/>
<path d="M107.317 323.739C115.043 307.387 108.05 287.869 91.6985 280.143C75.347 272.417 55.8285 279.41 48.1026 295.761C40.3768 312.113 47.3693 331.631 63.7208 339.357C80.0723 347.083 99.5908 340.09 107.317 323.739Z" stroke="#89421C" stroke-width="0.6" stroke-miterlimit="10"/>
<path d="M86.3028 337.231C101.469 332.487 109.917 316.347 105.173 301.181C100.429 286.016 84.2892 277.567 69.1233 282.311C53.9575 287.055 45.5088 303.195 50.2528 318.361C54.9968 333.527 71.1369 341.975 86.3028 337.231Z" stroke="#89421C" stroke-width="0.6" stroke-miterlimit="10"/>
<path d="M79.8578 309.8C79.8578 310.986 78.8853 311.935 77.6993 311.935C76.5133 311.935 75.5645 310.962 75.5645 309.776C75.5645 308.59 76.537 307.641 77.723 307.641C78.909 307.641 79.8578 308.614 79.8578 309.8Z" fill="#89421C"/>
<path d="M78.0314 269.642L77.9365 281.004" stroke="#89421C" stroke-width="0.75" stroke-miterlimit="10"/>
<path d="M77.4859 338.56L77.4028 349.922" stroke="#89421C" stroke-width="0.75" stroke-miterlimit="10"/>
<path d="M117.857 310.096L106.483 310.001" stroke="#89421C" stroke-width="0.75" stroke-miterlimit="10"/>
<path d="M48.9388 309.551L37.5769 309.468" stroke="#89421C" stroke-width="0.75" stroke-miterlimit="10"/>
<path d="M49.5554 281.17L57.5253 289.27" stroke="#89421C" stroke-width="0.75" stroke-miterlimit="10"/>
<path d="M97.8967 330.282L105.867 338.382" stroke="#89421C" stroke-width="0.75" stroke-miterlimit="10"/>
<path d="M106.317 281.62L98.217 289.59" stroke="#89421C" stroke-width="0.75" stroke-miterlimit="10"/>
<path d="M57.2051 329.962L49.1047 337.944" stroke="#89421C" stroke-width="0.75" stroke-miterlimit="10"/>
<path d="M62.6489 272.571L66.9067 283.103" stroke="#89421C" stroke-width="0.75" stroke-miterlimit="10"/>
<path d="M88.5156 336.449L92.7852 346.981" stroke="#89421C" stroke-width="0.75" stroke-miterlimit="10"/>
<path d="M114.916 294.714L104.384 298.972" stroke="#89421C" stroke-width="0.75" stroke-miterlimit="10"/>
<path d="M51.038 320.58L40.5063 324.85" stroke="#89421C" stroke-width="0.75" stroke-miterlimit="10"/>
<path d="M40.7554 294.133L51.2159 298.556" stroke="#89421C" stroke-width="0.75" stroke-miterlimit="10"/>
<path d="M104.206 320.996L114.679 325.431" stroke="#89421C" stroke-width="0.75" stroke-miterlimit="10"/>
<path d="M93.3663 272.82L88.9307 283.281" stroke="#89421C" stroke-width="0.75" stroke-miterlimit="10"/>
<path d="M66.4916 336.283L62.0559 346.744" stroke="#89421C" stroke-width="0.75" stroke-miterlimit="10"/>
<path d="M77.64 309.776C77.5095 305.317 77.3079 296.35 77.2367 291.903C77.0114 285.926 77.0351 279.972 77.9127 274.03H78.0669C79.2648 282.617 78.3634 292.176 78.1618 300.845L77.7823 309.776H77.6281H77.64Z" fill="#5C301C"/>
<path d="M77.7706 309.729C79.7868 311.543 83.8073 315.232 85.7761 317.094C88.5157 319.513 91.0775 322.051 93.0107 325.218L92.9039 325.324C88.3615 322.514 84.8628 317.781 81.2574 313.927L77.6638 309.835L77.7706 309.729Z" fill="#5C301C"/>
<path d="M42.7955 107.966C42.1076 107.966 41.562 107.397 41.562 106.709L41.7755 79.265C41.7755 78.5772 42.3448 78.0316 43.0326 78.0316C43.7205 78.0316 44.2661 78.6009 44.2661 79.2888L44.0526 106.733C44.0526 107.421 43.4833 107.966 42.7955 107.966Z" fill="#C58446"/>
<path d="M47.8122 86.3573L38.1226 86.2861C37.4347 86.2861 36.8892 85.7169 36.8892 85.029C36.8892 84.3411 37.4584 83.7956 38.1463 83.7956L47.8359 83.8667C48.5238 83.8667 49.0694 84.436 49.0694 85.1239C49.0694 85.8118 48.5001 86.3573 47.8122 86.3573Z" fill="#C58446"/>
<path d="M47.5158 123.847L37.8262 123.776L38.0041 101.894C38.0278 99.2135 40.21 97.0669 42.8904 97.0906C45.5708 97.1143 47.7174 99.2966 47.6937 101.977L47.5158 123.859V123.847Z" fill="#89421C"/>
<path d="M115.545 109.71C114.857 109.71 114.311 109.14 114.311 108.452L114.525 81.0085C114.525 80.3206 115.094 79.775 115.782 79.775C116.47 79.775 117.015 80.3443 117.015 81.0322L116.802 108.476C116.802 109.164 116.233 109.71 115.545 109.71Z" fill="#C58446"/>
<path d="M120.561 88.1007L110.872 88.0296C110.184 88.0296 109.638 87.4603 109.638 86.7724C109.638 86.0845 110.208 85.539 110.896 85.539L120.585 85.6101C121.273 85.6101 121.819 86.1794 121.819 86.8673C121.819 87.5552 121.249 88.1007 120.561 88.1007Z" fill="#C58446"/>
<path d="M120.265 125.59L110.575 125.519L110.753 103.637C110.777 100.957 112.959 98.8103 115.64 98.834C118.32 98.8577 120.467 101.04 120.443 103.72L120.265 125.602V125.59Z" fill="#89421C"/>
<path d="M120.392 117.8L37.8843 117.152L37.5753 156.491L120.083 157.139L120.392 117.8Z" fill="#E3BA7C"/>
<path d="M120.38 117.801L37.8723 117.153L37.8202 123.783L120.328 124.431L120.38 117.801Z" fill="#C58446"/>
<path d="M56.3394 136.276C56.3631 133.098 53.8132 130.5 50.6348 130.477C47.4563 130.453 44.8589 133.003 44.8352 136.181L44.6692 156.545L56.1734 156.64L56.3394 136.276ZM72.0658 130.643L67.1913 130.607C65.3649 130.595 63.8705 132.066 63.8468 133.892L63.6689 156.687L75.1731 156.782L75.351 133.987C75.3629 132.161 73.8922 130.666 72.0658 130.643ZM91.0655 130.797L86.1911 130.761C84.3646 130.749 82.8703 132.22 82.8465 134.046L82.6686 156.841L94.1728 156.936L94.3507 134.141C94.3626 132.315 92.8919 130.82 91.0655 130.797ZM113.327 136.727C113.35 133.548 110.801 130.951 107.622 130.927C104.444 130.903 101.846 133.453 101.823 136.632L101.656 156.995L113.161 157.09L113.327 136.727Z" fill="#BB773B"/>
<path d="M69.6228 130.631C66.4443 130.607 63.847 133.157 63.8233 136.335L63.7996 139.787C63.8233 136.608 66.4206 134.058 69.5991 134.082C72.7776 134.106 75.3275 136.703 75.3038 139.881L75.3275 136.43C75.3512 133.252 72.8013 130.654 69.6228 130.631Z" fill="#89421C"/>
<path d="M50.635 130.477C47.4566 130.453 44.8592 133.003 44.8355 136.181L44.8118 139.632C44.8355 136.454 47.4328 133.904 50.6113 133.928C53.7898 133.951 56.3397 136.549 56.316 139.727L56.3397 136.276C56.3634 133.098 53.8135 130.5 50.635 130.477Z" fill="#89421C"/>
<path d="M107.622 130.927C104.444 130.903 101.847 133.453 101.823 136.632L101.799 140.083C101.823 136.905 104.42 134.355 107.599 134.378C110.777 134.402 113.327 137 113.303 140.178L113.327 136.727C113.351 133.548 110.801 130.951 107.622 130.927Z" fill="#89421C"/>
<path d="M88.6226 130.773C85.4441 130.749 82.8468 133.299 82.823 136.478L82.7993 139.929C82.823 136.75 85.4204 134.201 88.5988 134.224C91.7773 134.248 94.3272 136.845 94.3035 140.024L94.3272 136.573C94.3509 133.394 91.8011 130.797 88.6226 130.773Z" fill="#89421C"/>
<path d="M119.696 198.636L104.895 198.517L105.025 182.435C105.061 178.343 108.393 175.058 112.485 175.094C116.577 175.129 119.862 178.462 119.826 182.554L119.696 198.636Z" fill="#4E3124"/>
<path d="M97.2329 198.458L82.4316 198.339L82.5621 182.257C82.5977 178.166 85.9304 174.88 90.0221 174.916C94.1138 174.952 97.399 178.284 97.3634 182.376L97.2329 198.458Z" fill="#4E3124"/>
<path d="M64.4034 174.714L70.6771 174.764C73.0253 174.782 74.9316 176.707 74.913 179.067L74.7621 198.279L59.9613 198.163L60.1122 178.95C60.1307 176.602 62.0552 174.696 64.4152 174.714L64.4034 174.714Z" fill="#4E3124"/>
<path d="M52.2954 198.102L37.4941 197.984L37.6246 181.901C37.6602 177.81 40.9928 174.525 45.0845 174.56C49.1762 174.596 52.4615 177.928 52.4259 182.02L52.2954 198.102Z" fill="#4E3124"/>
<path d="M105.25 171.465L97.8496 171.405L97.9089 163.364C97.9208 161.324 99.593 159.676 101.645 159.688C103.685 159.7 105.333 161.372 105.321 163.424L105.262 171.465H105.25Z" fill="#4E3124"/>
<path d="M77.3311 159.506L80.4739 159.53C81.648 159.539 82.6011 160.508 82.5919 161.682L82.5164 171.288L75.116 171.23L75.1915 161.624C75.2007 160.449 76.1689 159.496 77.343 159.506L77.3311 159.506Z" fill="#4E3124"/>
<path d="M54.5858 159.327L57.7286 159.352C58.9027 159.361 59.8558 160.329 59.8465 161.503L59.7711 171.109L52.3707 171.051L52.4461 161.445C52.4553 160.271 53.4235 159.318 54.5976 159.327L54.5858 159.327Z" fill="#4E3124"/>
<path d="M120.384 117.798C120.384 117.798 84.3056 97.5294 84.7088 45.974L74.6634 45.891C74.2602 97.4464 37.8618 117.146 37.8618 117.146" fill="#5A3C2C"/>
<path d="M80.0479 0.277435L78.4468 44.2662L80.9611 44.2899L80.0479 0.277435Z" fill="#C58446"/>
<path d="M57.7266 102.212L60.8694 102.237C62.0435 102.246 62.9966 103.214 62.9874 104.388L62.912 113.994L55.5115 113.936L55.587 104.33C55.5962 103.156 56.5644 102.203 57.7385 102.212L57.7266 102.212Z" fill="#4E3124"/>
<path d="M71.0203 102.316L74.1631 102.341C75.3372 102.35 76.2903 103.318 76.2811 104.492L76.2057 114.099L68.8052 114.041L68.8807 104.434C68.8899 103.26 69.8581 102.307 71.0322 102.316L71.0203 102.316Z" fill="#4E3124"/>
<path d="M89.5003 114.205L82.0996 114.145L82.1589 106.104C82.1708 104.064 83.843 102.416 85.8948 102.428C87.9347 102.439 89.5833 104.112 89.5714 106.164L89.5121 114.205H89.5003Z" fill="#4E3124"/>
<path d="M102.807 114.311L95.4065 114.252L95.4658 106.211C95.4777 104.171 97.1499 102.522 99.2017 102.534C101.242 102.546 102.89 104.218 102.878 106.27L102.819 114.311H102.807Z" fill="#4E3124"/>
<path d="M72.0898 96.4383L66.5393 96.3909L66.5867 90.366C66.5986 88.836 67.8558 87.6026 69.3857 87.6145C70.9156 87.6263 72.1491 88.8835 72.1372 90.4134L72.0898 96.4383Z" fill="#4E3124"/>
<path d="M82.0642 96.5213L76.5137 96.4739L76.5611 90.449C76.573 88.9191 77.8301 87.6856 79.3601 87.6975C80.89 87.7093 82.1235 88.9665 82.1116 90.4964L82.0642 96.5213Z" fill="#4E3124"/>
<path d="M92.0383 96.5925L86.4878 96.5451L86.5352 90.5202C86.5471 88.9902 87.8043 87.7568 89.3342 87.7686C90.8641 87.7805 92.0976 89.0377 92.0857 90.5676L92.0383 96.5925Z" fill="#4E3124"/>
<path d="M77.4979 80.712L72.6946 80.6764L72.7302 75.458C72.7302 74.1297 73.8213 73.0623 75.1496 73.0741C76.4779 73.0741 77.5453 74.1652 77.5335 75.4936L77.4979 80.712Z" fill="#4E3124"/>
<path d="M86.1439 80.7713L81.3406 80.7357L81.3762 75.5173C81.3762 74.189 82.4673 73.1216 83.7956 73.1334C85.1239 73.1334 86.1913 74.2245 86.1795 75.5529L86.1439 80.7713Z" fill="#4E3124"/>
<path d="M82.1707 67.6422L76.8811 67.5948L76.9285 61.8427C76.9285 60.3839 78.1383 59.2098 79.597 59.2216C81.0558 59.2216 82.23 60.4314 82.2181 61.8901L82.1707 67.6422Z" fill="#4E3124"/>
<path d="M80.8662 39.8543L78.6128 39.8424L74.6753 45.9029L84.7089 45.974L80.8662 39.8543Z" fill="#89421C"/>
</g>
</svg>
