<svg width="248" height="248" viewBox="0 0 248 248" fill="none" xmlns="http://www.w3.org/2000/svg">
<path d="M23.25 85.25V85.5697C23.2386 87.5668 22.5175 89.4947 21.2156 91.0092V91.0334C18.6 94.1238 15.5 99.6553 15.5 108.5C15.5 116.516 18.0672 122.174 21.1575 125.894C22.5134 127.544 23.2531 129.614 23.25 131.75C23.25 135.861 24.883 139.803 27.7898 142.71C30.6967 145.617 34.6391 147.25 38.75 147.25H42.625C43.6527 147.25 44.6383 146.842 45.365 146.115C46.0917 145.388 46.5 144.403 46.5 143.375V73.625C46.5 72.5973 46.0917 71.6117 45.365 70.885C44.6383 70.1583 43.6527 69.75 42.625 69.75H38.75C34.6391 69.75 30.6967 71.383 27.7898 74.2898C24.883 77.1967 23.25 81.1391 23.25 85.25Z" fill="#EAEAEA"/>
<path d="M219.025 90.3602L218.574 90.2778C218.131 90.1933 217.732 89.9569 217.444 89.6094C217.157 89.2619 217 88.8251 217 88.3742V30.0313C217 23.9088 212.936 18.4063 206.881 16.3138C201.108 14.323 195.092 15.9456 191.536 20.4455C183.973 29.4773 175.659 37.8529 166.683 45.4828C155.237 55.1703 144.286 62.0727 134.23 65.9767C133.497 66.2563 132.865 66.7519 132.42 67.398C131.975 68.0441 131.736 68.8102 131.735 69.595V144.828C131.737 146.343 132.182 147.824 133.016 149.089C133.85 150.354 135.037 151.346 136.429 151.944C145.797 155.959 155.92 162.517 166.46 171.454C175.503 179.153 183.878 187.605 191.493 196.719C192.713 198.25 194.27 199.478 196.043 200.307C197.816 201.136 199.756 201.545 201.713 201.5C203.433 201.492 205.14 201.208 206.77 200.657C212.984 198.594 217 193.29 217 187.162V128.616C217 128.159 217.162 127.716 217.458 127.367C217.753 127.018 218.162 126.784 218.613 126.708L219.025 126.64C223.684 125.376 232.5 119.965 232.5 108.5C232.5 97.0348 223.684 91.6244 219.025 90.3602Z" fill="#EAEAEA"/>
<path d="M116.25 155V73.625C116.25 72.5973 115.842 71.6117 115.115 70.885C114.388 70.1583 113.403 69.75 112.375 69.75H65.875C64.8473 69.75 63.8617 70.1583 63.135 70.885C62.4083 71.6117 62 72.5973 62 73.625V220.875C62 223.958 63.2248 226.915 65.4049 229.095C67.585 231.275 70.5419 232.5 73.625 232.5H99.0305C101.445 232.52 103.833 231.987 106.01 230.942C108.187 229.897 110.096 228.367 111.59 226.47C113.122 224.506 114.153 222.198 114.593 219.746C115.032 217.294 114.868 214.772 114.114 212.398C113.329 209.889 112.356 207.07 111.319 204.072C107.488 192.98 102.436 186.116 101.089 170.495C105.14 170.407 108.995 168.735 111.829 165.839C114.663 162.943 116.25 159.052 116.25 155Z" fill="#EAEAEA"/>
</svg>
