<svg width="50" height="51" viewBox="0 0 50 51" fill="none" xmlns="http://www.w3.org/2000/svg">
<rect y="0.577209" width="50" height="50" rx="10" fill="#37C6FF"/>
<path d="M33.7344 23.9522H26.625C25.9785 23.9522 25.3585 23.6954 24.9014 23.2383C24.4443 22.7812 24.1875 22.1612 24.1875 21.5147V14.4053C24.1875 14.3515 24.1661 14.2998 24.128 14.2617C24.0899 14.2236 24.0382 14.2022 23.9844 14.2022H19.3125C18.4505 14.2022 17.6239 14.5446 17.0144 15.1541C16.4049 15.7636 16.0625 16.5903 16.0625 17.4522V33.7022C16.0625 34.5642 16.4049 35.3908 17.0144 36.0003C17.6239 36.6098 18.4505 36.9522 19.3125 36.9522H30.6875C31.5495 36.9522 32.3761 36.6098 32.9856 36.0003C33.5951 35.3908 33.9375 34.5642 33.9375 33.7022V24.1553C33.9375 24.1015 33.9161 24.0498 33.878 24.0117C33.8399 23.9736 33.7882 23.9522 33.7344 23.9522ZM29.0625 32.0772H20.9375C20.722 32.0772 20.5153 31.9916 20.363 31.8392C20.2106 31.6869 20.125 31.4802 20.125 31.2647C20.125 31.0492 20.2106 30.8426 20.363 30.6902C20.5153 30.5378 20.722 30.4522 20.9375 30.4522H29.0625C29.278 30.4522 29.4847 30.5378 29.637 30.6902C29.7894 30.8426 29.875 31.0492 29.875 31.2647C29.875 31.4802 29.7894 31.6869 29.637 31.8392C29.4847 31.9916 29.278 32.0772 29.0625 32.0772ZM29.0625 28.0147H20.9375C20.722 28.0147 20.5153 27.9291 20.363 27.7767C20.2106 27.6244 20.125 27.4177 20.125 27.2022C20.125 26.9867 20.2106 26.7801 20.363 26.6277C20.5153 26.4753 20.722 26.3897 20.9375 26.3897H29.0625C29.278 26.3897 29.4847 26.4753 29.637 26.6277C29.7894 26.7801 29.875 26.9867 29.875 27.2022C29.875 27.4177 29.7894 27.6244 29.637 27.7767C29.4847 27.9291 29.278 28.0147 29.0625 28.0147Z" fill="white"/>
<path d="M33.2885 22.154L25.9857 14.8512C25.9715 14.8371 25.9534 14.8275 25.9338 14.8236C25.9141 14.8197 25.8938 14.8217 25.8753 14.8294C25.8567 14.837 25.8409 14.85 25.8298 14.8666C25.8186 14.8832 25.8126 14.9028 25.8125 14.9228V21.5147C25.8125 21.7302 25.8981 21.9369 26.0505 22.0892C26.2028 22.2416 26.4095 22.3272 26.625 22.3272H33.2169C33.2369 22.3271 33.2565 22.3211 33.2731 22.31C33.2897 22.2988 33.3027 22.283 33.3103 22.2645C33.318 22.2459 33.32 22.2256 33.3161 22.2059C33.3122 22.1863 33.3026 22.1682 33.2885 22.154Z" fill="white"/>
</svg>
