<svg width="18" height="19" viewBox="0 0 18 19" fill="none" xmlns="http://www.w3.org/2000/svg">
<path d="M12.9375 1.625H5.0625C4.46596 1.62565 3.89404 1.86291 3.47223 2.28473C3.05041 2.70654 2.81315 3.27846 2.8125 3.875V15.125C2.81315 15.7215 3.05041 16.2935 3.47223 16.7153C3.89404 17.1371 4.46596 17.3743 5.0625 17.375H12.9375C13.534 17.3743 14.106 17.1371 14.5278 16.7153C14.9496 16.2935 15.1868 15.7215 15.1875 15.125V3.875C15.1868 3.27846 14.9496 2.70654 14.5278 2.28473C14.106 1.86291 13.534 1.62565 12.9375 1.625ZM9 11.1875H6.1875C6.03832 11.1875 5.89524 11.1282 5.78975 11.0227C5.68426 10.9173 5.625 10.7742 5.625 10.625C5.625 10.4758 5.68426 10.3327 5.78975 10.2273C5.89524 10.1218 6.03832 10.0625 6.1875 10.0625H9C9.14918 10.0625 9.29226 10.1218 9.39775 10.2273C9.50324 10.3327 9.5625 10.4758 9.5625 10.625C9.5625 10.7742 9.50324 10.9173 9.39775 11.0227C9.29226 11.1282 9.14918 11.1875 9 11.1875ZM11.8125 8.375H6.1875C6.03832 8.375 5.89524 8.31574 5.78975 8.21025C5.68426 8.10476 5.625 7.96168 5.625 7.8125C5.625 7.66332 5.68426 7.52024 5.78975 7.41475C5.89524 7.30926 6.03832 7.25 6.1875 7.25H11.8125C11.9617 7.25 12.1048 7.30926 12.2102 7.41475C12.3157 7.52024 12.375 7.66332 12.375 7.8125C12.375 7.96168 12.3157 8.10476 12.2102 8.21025C12.1048 8.31574 11.9617 8.375 11.8125 8.375ZM11.8125 5.5625H6.1875C6.03832 5.5625 5.89524 5.50324 5.78975 5.39775C5.68426 5.29226 5.625 5.14918 5.625 5C5.625 4.85082 5.68426 4.70774 5.78975 4.60225C5.89524 4.49676 6.03832 4.4375 6.1875 4.4375H11.8125C11.9617 4.4375 12.1048 4.49676 12.2102 4.60225C12.3157 4.70774 12.375 4.85082 12.375 5C12.375 5.14918 12.3157 5.29226 12.2102 5.39775C12.1048 5.50324 11.9617 5.5625 11.8125 5.5625Z" fill="#062144"/>
</svg>
