<svg width="7" height="12" viewBox="0 0 7 12" fill="none" xmlns="http://www.w3.org/2000/svg">
<path d="M2.33008 4.12502V8.33937C2.33495 8.64754 2.46078 8.94145 2.68044 9.15765C2.90009 9.37386 3.19594 9.49504 3.50415 9.49504C3.81236 9.49504 4.10821 9.37386 4.32786 9.15765C4.54752 8.94145 4.67335 8.64754 4.67822 8.33937L4.68203 2.81545C4.68523 2.55205 4.63611 2.29064 4.53752 2.04636C4.43893 1.80209 4.29284 1.57981 4.10771 1.39242C3.92257 1.20503 3.70209 1.05625 3.45903 0.954704C3.21597 0.85316 2.95517 0.800873 2.69175 0.800873C2.42833 0.800873 2.16753 0.85316 1.92447 0.954704C1.68141 1.05625 1.46092 1.20503 1.27579 1.39242C1.09066 1.57981 0.944564 1.80209 0.845976 2.04636C0.747389 2.29064 0.698269 2.55205 0.701465 2.81545V8.37658C0.696098 8.7474 0.764502 9.1156 0.902698 9.45975C1.0409 9.80391 1.24613 10.1172 1.50647 10.3813C1.7668 10.6454 2.07705 10.8552 2.41917 10.9983C2.76129 11.1415 3.12845 11.2152 3.49932 11.2152C3.87018 11.2152 4.23735 11.1415 4.57946 10.9983C4.92158 10.8552 5.23183 10.6454 5.49217 10.3813C5.7525 10.1172 5.95774 9.80391 6.09593 9.45975C6.23413 9.1156 6.30253 8.7474 6.29717 8.37658V3.1799" stroke="white" stroke-width="1.25" stroke-miterlimit="10" stroke-linecap="round"/>
</svg>
