<svg width="15" height="16" viewBox="0 0 15 16" fill="none" xmlns="http://www.w3.org/2000/svg">
<path d="M6.33057 6.12505V10.3394C6.33543 10.6476 6.46127 10.9415 6.68092 11.1577C6.90058 11.3739 7.19643 11.4951 7.50464 11.4951C7.81285 11.4951 8.1087 11.3739 8.32835 11.1577C8.548 10.9415 8.67384 10.6476 8.67871 10.3394L8.68252 4.81548C8.68571 4.55208 8.6366 4.29067 8.53801 4.04639C8.43942 3.80212 8.29333 3.57984 8.10819 3.39245C7.92306 3.20506 7.70258 3.05628 7.45951 2.95473C7.21645 2.85319 6.95566 2.8009 6.69224 2.8009C6.42882 2.8009 6.16802 2.85319 5.92496 2.95473C5.6819 3.05628 5.46141 3.20506 5.27628 3.39245C5.09115 3.57984 4.94505 3.80212 4.84646 4.04639C4.74788 4.29067 4.69876 4.55208 4.70195 4.81548V10.3766C4.69659 10.7474 4.76499 11.1156 4.90319 11.4598C5.04138 11.8039 5.24662 12.1172 5.50695 12.3813C5.76729 12.6454 6.07754 12.8552 6.41966 12.9984C6.76177 13.1415 7.12894 13.2152 7.4998 13.2152C7.87067 13.2152 8.23783 13.1415 8.57995 12.9984C8.92207 12.8552 9.23232 12.6454 9.49265 12.3813C9.75299 12.1172 9.95823 11.8039 10.0964 11.4598C10.2346 11.1156 10.303 10.7474 10.2977 10.3766V5.17993" stroke="white" stroke-width="1.25" stroke-miterlimit="10" stroke-linecap="round"/>
</svg>
