<svg width="15" height="16" viewBox="0 0 15 16" fill="none" xmlns="http://www.w3.org/2000/svg">
<path d="M12.6562 3.3125H9.84375V2.60938C9.84375 2.29857 9.72028 2.0005 9.50052 1.78073C9.28075 1.56097 8.98268 1.4375 8.67188 1.4375H6.32812C6.01732 1.4375 5.71925 1.56097 5.49948 1.78073C5.27972 2.0005 5.15625 2.29857 5.15625 2.60938V3.3125H2.34375C2.21943 3.3125 2.1002 3.36189 2.01229 3.44979C1.92439 3.5377 1.875 3.65693 1.875 3.78125C1.875 3.90557 1.92439 4.0248 2.01229 4.11271C2.1002 4.20061 2.21943 4.25 2.34375 4.25H2.8418L3.39844 13.1832C3.44004 13.9698 4.04297 14.5625 4.80469 14.5625H10.1953C10.9608 14.5625 11.5518 13.983 11.6016 13.1855L12.1582 4.25H12.6562C12.7806 4.25 12.8998 4.20061 12.9877 4.11271C13.0756 4.0248 13.125 3.90557 13.125 3.78125C13.125 3.65693 13.0756 3.5377 12.9877 3.44979C12.8998 3.36189 12.7806 3.3125 12.6562 3.3125ZM5.6417 12.6875H5.625C5.50352 12.6876 5.38675 12.6405 5.29931 12.5562C5.21187 12.4718 5.16058 12.3569 5.15625 12.2354L4.92188 5.67295C4.91745 5.54863 4.96258 5.42764 5.04736 5.3366C5.13214 5.24556 5.24961 5.19193 5.37393 5.1875C5.49825 5.18307 5.61923 5.22821 5.71027 5.31299C5.80131 5.39776 5.85495 5.51523 5.85938 5.63955L6.09375 12.2021C6.09598 12.2636 6.08606 12.325 6.06454 12.3827C6.04302 12.4405 6.01034 12.4934 5.96835 12.5385C5.92637 12.5836 5.87591 12.6199 5.81986 12.6455C5.76381 12.6711 5.70327 12.6853 5.6417 12.6875ZM7.96875 12.2188C7.96875 12.3431 7.91936 12.4623 7.83146 12.5502C7.74355 12.6381 7.62432 12.6875 7.5 12.6875C7.37568 12.6875 7.25645 12.6381 7.16854 12.5502C7.08064 12.4623 7.03125 12.3431 7.03125 12.2188V5.65625C7.03125 5.53193 7.08064 5.4127 7.16854 5.32479C7.25645 5.23689 7.37568 5.1875 7.5 5.1875C7.62432 5.1875 7.74355 5.23689 7.83146 5.32479C7.91936 5.4127 7.96875 5.53193 7.96875 5.65625V12.2188ZM8.90625 3.3125H6.09375V2.60938C6.0934 2.5785 6.09922 2.54786 6.11087 2.51927C6.12252 2.49067 6.13977 2.46469 6.16161 2.44286C6.18344 2.42102 6.20942 2.40377 6.23802 2.39212C6.26661 2.38047 6.29725 2.37465 6.32812 2.375H8.67188C8.70275 2.37465 8.73339 2.38047 8.76198 2.39212C8.79058 2.40377 8.81656 2.42102 8.83839 2.44286C8.86023 2.46469 8.87748 2.49067 8.88913 2.51927C8.90078 2.54786 8.9066 2.5785 8.90625 2.60938V3.3125ZM9.84375 12.2354C9.83942 12.3569 9.78813 12.4718 9.70069 12.5562C9.61325 12.6405 9.49648 12.6876 9.375 12.6875H9.35801C9.29646 12.6853 9.23595 12.671 9.17994 12.6454C9.12392 12.6198 9.07349 12.5835 9.03154 12.5384C8.98959 12.4933 8.95693 12.4404 8.93543 12.3827C8.91393 12.325 8.90402 12.2636 8.90625 12.2021L9.14062 5.63955C9.14282 5.57799 9.15711 5.51747 9.1827 5.46144C9.20828 5.40541 9.24465 5.35496 9.28973 5.31299C9.33481 5.27101 9.38771 5.23832 9.44542 5.21679C9.50313 5.19526 9.56452 5.18531 9.62607 5.1875C9.68763 5.18969 9.74815 5.20399 9.80419 5.22957C9.86022 5.25515 9.91066 5.29152 9.95264 5.3366C9.99462 5.38168 10.0273 5.43458 10.0488 5.4923C10.0704 5.55001 10.0803 5.61139 10.0781 5.67295L9.84375 12.2354Z" fill="#FF5858"/>
</svg>
