<svg width="44" height="44" viewBox="0 0 44 44" fill="none" xmlns="http://www.w3.org/2000/svg">
<path d="M37.125 12.375H32.0547C31.7969 12.375 31.4772 12.2083 31.228 11.9453L28.9988 8.42703C28.9635 8.37119 28.9241 8.31805 28.881 8.26805C28.111 7.37 27.0703 6.875 25.9531 6.875H18.0469C16.9297 6.875 15.889 7.37 15.119 8.26805C15.0759 8.31805 15.0365 8.37119 15.0012 8.42703L12.772 11.9505C12.5812 12.1584 12.3131 12.3802 12.0312 12.3802V11.6927C12.0312 11.328 11.8864 10.9782 11.6285 10.7204C11.3707 10.4625 11.0209 10.3177 10.6562 10.3177H8.59375C8.22908 10.3177 7.87934 10.4625 7.62148 10.7204C7.36362 10.9782 7.21875 11.328 7.21875 11.6927V12.3802H6.875C5.78133 12.3813 4.73278 12.8163 3.95944 13.5896C3.1861 14.3629 2.75114 15.4115 2.75 16.5052V33C2.75114 34.0937 3.1861 35.1422 3.95944 35.9156C4.73278 36.6889 5.78133 37.1239 6.875 37.125H37.125C38.2187 37.1239 39.2672 36.6889 40.0406 35.9156C40.8139 35.1422 41.2489 34.0937 41.25 33V16.5C41.2489 15.4063 40.8139 14.3578 40.0406 13.5844C39.2672 12.8111 38.2187 12.3761 37.125 12.375ZM27.2284 29.7602C26.105 30.6788 24.7592 31.2851 23.3267 31.5178C21.8942 31.7506 20.4257 31.6016 19.0691 31.0858C17.7126 30.5701 16.516 29.7059 15.6 28.5802C14.6839 27.4546 14.0808 26.1074 13.8514 24.6744C13.5578 24.774 13.2392 24.7715 12.9472 24.6672C12.6553 24.563 12.4071 24.3631 12.243 24.1001C12.0789 23.8371 12.0085 23.5264 12.0432 23.2183C12.078 22.9102 12.2158 22.6229 12.4343 22.403L14.153 20.6843C14.4109 20.4266 14.7605 20.2819 15.125 20.2819C15.4895 20.2819 15.8391 20.4266 16.097 20.6843L17.8157 22.403C18.0079 22.5953 18.1387 22.8403 18.1917 23.1069C18.2447 23.3736 18.2175 23.6499 18.1135 23.9011C18.0095 24.1523 17.8333 24.367 17.6073 24.5181C17.3813 24.6692 17.1156 24.7499 16.8438 24.75C16.7863 24.7493 16.7289 24.7453 16.6719 24.738C16.9019 25.6341 17.3541 26.4578 17.9866 27.133C18.6192 27.8083 19.4116 28.3132 20.2909 28.6012C21.1701 28.8892 22.1077 28.9511 23.0172 28.781C23.9266 28.6109 24.7785 28.2144 25.4942 27.628C25.6341 27.5131 25.7953 27.4269 25.9686 27.3744C26.1419 27.3218 26.3239 27.3041 26.5041 27.3221C26.6842 27.3401 26.8591 27.3935 27.0186 27.4793C27.178 27.5651 27.319 27.6815 27.4334 27.8219C27.5477 27.9623 27.6332 28.1239 27.685 28.2974C27.7367 28.4709 27.7537 28.653 27.7349 28.8331C27.7161 29.0132 27.6619 29.1878 27.5754 29.3469C27.4889 29.506 27.3719 29.6464 27.231 29.7602H27.2284ZM31.5657 24.3461L29.847 26.0648C29.5891 26.3225 29.2395 26.4673 28.875 26.4673C28.5105 26.4673 28.1609 26.3225 27.903 26.0648L26.1843 24.3461C25.9833 24.1445 25.8498 23.8855 25.8023 23.6048C25.7548 23.3241 25.7956 23.0355 25.919 22.779C26.0425 22.5225 26.2425 22.3106 26.4915 22.1726C26.7405 22.0346 27.0263 21.9773 27.3092 22.0086C27.0795 21.1109 26.6267 20.2858 25.9928 19.6099C25.359 18.934 24.5646 18.4292 23.6835 18.1423C22.8024 17.8555 21.8631 17.7959 20.9528 17.9691C20.0425 18.1423 19.1907 18.5427 18.4766 19.1331C18.3385 19.2553 18.1772 19.3485 18.0024 19.4071C17.8275 19.4657 17.6427 19.4885 17.4589 19.4742C17.275 19.4599 17.0959 19.4088 16.9323 19.3239C16.7686 19.239 16.6237 19.122 16.5061 18.98C16.3885 18.8379 16.3008 18.6736 16.248 18.497C16.1952 18.3203 16.1785 18.1348 16.1988 17.9515C16.2192 17.7683 16.2762 17.591 16.3665 17.4302C16.4567 17.2694 16.5784 17.1284 16.7243 17.0156C17.8461 16.088 19.1933 15.4738 20.6292 15.2351C22.0651 14.9965 23.5386 15.142 24.9001 15.657C26.2616 16.1719 27.4626 17.0379 28.3812 18.167C29.2998 19.2961 29.9034 20.6482 30.1305 22.0859C30.4243 21.9813 30.7448 21.9795 31.0397 22.081C31.3345 22.1825 31.5861 22.3812 31.7531 22.6445C31.9202 22.9077 31.9928 23.22 31.9591 23.5299C31.9253 23.8399 31.7872 24.1292 31.5674 24.3504L31.5657 24.3461Z" fill="#5271FF"/>
</svg>
