<svg width="15" height="15" viewBox="0 0 15 15" fill="none" xmlns="http://www.w3.org/2000/svg">
<g clip-path="url(#clip0_787_1017)">
<path d="M1.7709 11.4014C1.7709 11.4034 1.7709 11.4072 1.76855 11.4125C1.76943 11.409 1.77002 11.4052 1.7709 11.4014Z" fill="#062144"/>
<path d="M12.8877 11.8828C12.7913 11.8807 12.696 11.8609 12.6068 11.8242L10.9433 11.2345L10.931 11.2295C10.8947 11.2144 10.8557 11.2068 10.8164 11.2072C10.7802 11.2073 10.7443 11.2138 10.7104 11.2266C10.6699 11.2418 10.3058 11.3786 9.92375 11.4835C9.71662 11.5403 8.99562 11.7258 8.41701 11.7258C6.9381 11.7258 5.55529 11.1574 4.52375 10.1253C4.01981 9.62446 3.62023 9.02863 3.34812 8.37232C3.07601 7.71601 2.93678 7.01224 2.93849 6.30176C2.93848 5.93156 2.97836 5.56244 3.05744 5.20078C3.31496 4.01075 3.99699 2.92823 4.97785 2.15391C5.98401 1.36466 7.22612 0.936281 8.5049 0.937503C10.0345 0.937503 11.4598 1.52344 12.5186 2.5834C13.5194 3.5874 14.0678 4.90752 14.0634 6.3003C14.0625 7.33523 13.7535 8.34646 13.1757 9.20508L13.1701 9.21328L13.1485 9.24258C13.1435 9.24932 13.1385 9.25576 13.1338 9.2625L13.1294 9.27041C13.1178 9.29023 13.1072 9.31067 13.0978 9.33164L13.5589 10.9705C13.5793 11.0381 13.5903 11.1082 13.5917 11.1788C13.5918 11.2713 13.5737 11.3629 13.5384 11.4484C13.503 11.5338 13.4512 11.6115 13.3858 11.6769C13.3204 11.7423 13.2427 11.7941 13.1573 11.8295C13.0718 11.8648 12.9802 11.8829 12.8877 11.8828Z" fill="#062144"/>
<path d="M8.78526 12.4625C8.75499 12.4036 8.7124 12.352 8.66038 12.311C8.60836 12.2701 8.54814 12.2408 8.4838 12.2252C8.31446 12.1804 8.117 12.188 7.96612 12.1769C6.54152 12.0778 5.20092 11.4664 4.1921 10.4557C3.29525 9.56385 2.71239 8.4048 2.53126 7.15304C2.49025 6.86769 2.49025 6.79679 2.49025 6.79679C2.49023 6.70158 2.46122 6.60864 2.40708 6.53032C2.35295 6.45201 2.27624 6.39204 2.18719 6.35838C2.09813 6.32473 2.00093 6.319 1.90853 6.34194C1.81613 6.36489 1.73291 6.41542 1.66994 6.48683C1.66994 6.48683 1.43908 6.73819 1.33009 6.99044C1.02443 7.6947 0.894081 8.46257 0.950208 9.22825C1.00634 9.99392 1.24727 10.7346 1.65236 11.3867C1.72853 11.5136 1.72853 11.5722 1.71154 11.704C1.63156 12.1174 1.49152 12.8466 1.41857 13.2248C1.39442 13.3475 1.4034 13.4744 1.4446 13.5924C1.48579 13.7104 1.55771 13.8153 1.65294 13.8963L1.66642 13.9077C1.7924 14.0078 1.94851 14.0623 2.10939 14.0624C2.19988 14.0625 2.28949 14.0447 2.37306 14.01L3.94074 13.405C3.99471 13.3845 4.05434 13.3845 4.10831 13.405C4.7256 13.6347 5.36808 13.7566 5.97687 13.7566C6.73541 13.7573 7.48476 13.5906 8.1715 13.2685C8.33146 13.1935 8.58165 13.112 8.72814 12.9427C8.78357 12.877 8.81853 12.7965 8.82868 12.7112C8.83884 12.6258 8.82374 12.5394 8.78526 12.4625Z" fill="#062144"/>
</g>
<defs>
<clipPath id="clip0_787_1017">
<rect width="15" height="15" fill="white"/>
</clipPath>
</defs>
</svg>
