<svg width="25" height="25" viewBox="0 0 25 25" fill="none" xmlns="http://www.w3.org/2000/svg">
<path d="M13.4946 12.5L16.2778 9.7168C16.4099 9.58494 16.4842 9.40601 16.4843 9.21937C16.4845 9.03273 16.4105 8.85367 16.2787 8.72158C16.1468 8.58949 15.9679 8.51519 15.7812 8.51503C15.5946 8.51486 15.4155 8.58884 15.2834 8.7207L12.5002 11.5039L9.71704 8.7207C9.58495 8.58861 9.4058 8.5144 9.21899 8.5144C9.03219 8.5144 8.85304 8.58861 8.72095 8.7207C8.58886 8.85279 8.51465 9.03194 8.51465 9.21875C8.51465 9.40555 8.58886 9.5847 8.72095 9.7168L11.5041 12.5L8.72095 15.2832C8.58886 15.4153 8.51465 15.5944 8.51465 15.7812C8.51465 15.968 8.58886 16.1472 8.72095 16.2793C8.85304 16.4114 9.03219 16.4856 9.21899 16.4856C9.4058 16.4856 9.58495 16.4114 9.71704 16.2793L12.5002 13.4961L15.2834 16.2793C15.4155 16.4114 15.5947 16.4856 15.7815 16.4856C15.9683 16.4856 16.1474 16.4114 16.2795 16.2793C16.4116 16.1472 16.4858 15.968 16.4858 15.7812C16.4858 15.5944 16.4116 15.4153 16.2795 15.2832L13.4946 12.5Z" fill="#B8B8B8"/>
<rect x="0.5" y="0.5" width="24" height="24" rx="4.5" stroke="#B8B8B8"/>
</svg>
