<svg width="12" height="12" viewBox="0 0 12 12" fill="none" xmlns="http://www.w3.org/2000/svg">
<path d="M6.22656 0.38797C3.09051 0.38797 0.539062 2.93942 0.539062 6.07547C0.539062 9.21153 3.09051 11.763 6.22656 11.763C9.36262 11.763 11.9141 9.21153 11.9141 6.07547C11.9141 2.93942 9.36262 0.38797 6.22656 0.38797ZM8.28582 7.51621C8.32816 7.55643 8.36201 7.60472 8.38539 7.65824C8.40877 7.71175 8.4212 7.7694 8.42195 7.82779C8.42269 7.88618 8.41175 7.94413 8.38974 7.99822C8.36774 8.05232 8.33513 8.10146 8.29384 8.14275C8.25255 8.18404 8.20341 8.21665 8.14932 8.23865C8.09522 8.26065 8.03727 8.2716 7.97888 8.27085C7.92049 8.27011 7.86284 8.25768 7.80933 8.2343C7.75582 8.21092 7.70753 8.17706 7.66731 8.13473L6.22656 6.69426L4.78582 8.13473C4.70311 8.21331 4.59297 8.25648 4.47888 8.25501C4.3648 8.25355 4.2558 8.20758 4.17512 8.12691C4.09445 8.04623 4.04848 7.93723 4.04702 7.82315C4.04556 7.70907 4.08872 7.59893 4.16731 7.51621L5.60777 6.07547L4.16731 4.63473C4.08872 4.55201 4.04556 4.44187 4.04702 4.32779C4.04848 4.21371 4.09445 4.10471 4.17512 4.02403C4.2558 3.94336 4.3648 3.89739 4.47888 3.89593C4.59297 3.89447 4.70311 3.93763 4.78582 4.01621L6.22656 5.45668L7.66731 4.01621C7.75002 3.93763 7.86016 3.89447 7.97424 3.89593C8.08833 3.89739 8.19733 3.94336 8.278 4.02403C8.35868 4.10471 8.40465 4.21371 8.40611 4.32779C8.40757 4.44187 8.3644 4.55201 8.28582 4.63473L6.84535 6.07547L8.28582 7.51621Z" fill="#B8B8B8"/>
</svg>
