<svg width="13" height="14" viewBox="0 0 13 14" fill="none" xmlns="http://www.w3.org/2000/svg">
<path d="M11.6562 2.3125H8.84375V1.60938C8.84375 1.29857 8.72028 1.0005 8.50052 0.780734C8.28075 0.560965 7.98268 0.4375 7.67188 0.4375H5.32812C5.01732 0.4375 4.71925 0.560965 4.49948 0.780734C4.27972 1.0005 4.15625 1.29857 4.15625 1.60938V2.3125H1.34375C1.21943 2.3125 1.1002 2.36189 1.01229 2.44979C0.924386 2.5377 0.875 2.65693 0.875 2.78125C0.875 2.90557 0.924386 3.0248 1.01229 3.11271C1.1002 3.20061 1.21943 3.25 1.34375 3.25H1.8418L2.39844 12.1832C2.44004 12.9698 3.04297 13.5625 3.80469 13.5625H9.19531C9.96084 13.5625 10.5518 12.983 10.6016 12.1855L11.1582 3.25H11.6562C11.7806 3.25 11.8998 3.20061 11.9877 3.11271C12.0756 3.0248 12.125 2.90557 12.125 2.78125C12.125 2.65693 12.0756 2.5377 11.9877 2.44979C11.8998 2.36189 11.7806 2.3125 11.6562 2.3125ZM4.6417 11.6875H4.625C4.50352 11.6876 4.38675 11.6405 4.29931 11.5562C4.21187 11.4718 4.16058 11.3569 4.15625 11.2354L3.92188 4.67295C3.91745 4.54863 3.96258 4.42764 4.04736 4.3366C4.13214 4.24556 4.24961 4.19193 4.37393 4.1875C4.49825 4.18307 4.61923 4.22821 4.71027 4.31299C4.80131 4.39776 4.85495 4.51523 4.85938 4.63955L5.09375 11.2021C5.09598 11.2636 5.08606 11.325 5.06454 11.3827C5.04302 11.4405 5.01034 11.4934 4.96835 11.5385C4.92637 11.5836 4.87591 11.6199 4.81986 11.6455C4.76381 11.6711 4.70327 11.6853 4.6417 11.6875ZM6.96875 11.2188C6.96875 11.3431 6.91936 11.4623 6.83146 11.5502C6.74355 11.6381 6.62432 11.6875 6.5 11.6875C6.37568 11.6875 6.25645 11.6381 6.16854 11.5502C6.08064 11.4623 6.03125 11.3431 6.03125 11.2188V4.65625C6.03125 4.53193 6.08064 4.4127 6.16854 4.32479C6.25645 4.23689 6.37568 4.1875 6.5 4.1875C6.62432 4.1875 6.74355 4.23689 6.83146 4.32479C6.91936 4.4127 6.96875 4.53193 6.96875 4.65625V11.2188ZM7.90625 2.3125H5.09375V1.60938C5.0934 1.5785 5.09922 1.54786 5.11087 1.51927C5.12252 1.49067 5.13977 1.46469 5.16161 1.44286C5.18344 1.42102 5.20942 1.40377 5.23802 1.39212C5.26661 1.38047 5.29725 1.37465 5.32812 1.375H7.67188C7.70275 1.37465 7.73339 1.38047 7.76198 1.39212C7.79058 1.40377 7.81656 1.42102 7.83839 1.44286C7.86023 1.46469 7.87748 1.49067 7.88913 1.51927C7.90078 1.54786 7.9066 1.5785 7.90625 1.60938V2.3125ZM8.84375 11.2354C8.83942 11.3569 8.78813 11.4718 8.70069 11.5562C8.61325 11.6405 8.49648 11.6876 8.375 11.6875H8.35801C8.29646 11.6853 8.23595 11.671 8.17994 11.6454C8.12392 11.6198 8.07349 11.5835 8.03154 11.5384C7.98959 11.4933 7.95693 11.4404 7.93543 11.3827C7.91393 11.325 7.90402 11.2636 7.90625 11.2021L8.14062 4.63955C8.14282 4.57799 8.15711 4.51747 8.1827 4.46144C8.20828 4.40541 8.24465 4.35496 8.28973 4.31299C8.33481 4.27101 8.38771 4.23832 8.44542 4.21679C8.50313 4.19526 8.56452 4.18531 8.62607 4.1875C8.68763 4.18969 8.74815 4.20399 8.80419 4.22957C8.86022 4.25515 8.91066 4.29152 8.95264 4.3366C8.99462 4.38168 9.0273 4.43458 9.04883 4.4923C9.07036 4.55001 9.08032 4.61139 9.07812 4.67295L8.84375 11.2354Z" fill="#FF5858"/>
</svg>
