<svg width="15" height="15" viewBox="0 0 15 15" fill="none" xmlns="http://www.w3.org/2000/svg">
<path d="M11.0156 4.6875H7.96875V9.18076L9.5124 7.6374C9.60103 7.55321 9.71903 7.50696 9.84127 7.50852C9.9635 7.51009 10.0803 7.55934 10.1667 7.64578C10.2532 7.73222 10.3024 7.849 10.304 7.97123C10.3055 8.09347 10.2593 8.21147 10.1751 8.3001L7.83135 10.6438C7.74345 10.7317 7.62427 10.781 7.5 10.781C7.37573 10.781 7.25655 10.7317 7.16865 10.6438L4.8249 8.3001C4.74071 8.21147 4.69446 8.09347 4.69602 7.97123C4.69759 7.849 4.74684 7.73222 4.83328 7.64578C4.91972 7.55934 5.0365 7.51009 5.15874 7.50852C5.28097 7.50696 5.39897 7.55321 5.4876 7.6374L7.03125 9.18076V4.6875H3.98438C3.5494 4.68797 3.13237 4.86097 2.82479 5.16854C2.51722 5.47612 2.34422 5.89315 2.34375 6.32812V12.4219C2.34422 12.8569 2.51722 13.2739 2.82479 13.5815C3.13237 13.889 3.5494 14.062 3.98438 14.0625H11.0156C11.4506 14.062 11.8676 13.889 12.1752 13.5815C12.4828 13.2739 12.6558 12.8569 12.6562 12.4219V6.32812C12.6558 5.89315 12.4828 5.47612 12.1752 5.16854C11.8676 4.86097 11.4506 4.68797 11.0156 4.6875V4.6875Z" fill="#5271FF"/>
<path d="M7.96875 1.40625C7.96875 1.28193 7.91936 1.1627 7.83146 1.07479C7.74355 0.986886 7.62432 0.9375 7.5 0.9375C7.37568 0.9375 7.25645 0.986886 7.16854 1.07479C7.08064 1.1627 7.03125 1.28193 7.03125 1.40625V4.6875H7.96875V1.40625Z" fill="#5271FF"/>
</svg>
