<svg width="15" height="15" viewBox="0 0 15 15" fill="none" xmlns="http://www.w3.org/2000/svg">
<path d="M10.5064 3.78748L2.53389 11.7797L2.05078 12.9492L3.22031 12.4661L11.2125 4.49353L10.5064 3.78748Z" stroke="#5271FF" stroke-width="2" stroke-linecap="round" stroke-linejoin="round"/>
<path d="M12.1013 2.19259L11.7559 2.53771L12.4619 3.24376L12.8073 2.89835C12.898 2.80766 12.9489 2.68468 12.9489 2.55646C12.9489 2.42824 12.898 2.30526 12.8073 2.21457L12.7854 2.19259C12.7404 2.14767 12.6871 2.11204 12.6284 2.08773C12.5697 2.06342 12.5068 2.0509 12.4433 2.0509C12.3798 2.0509 12.3169 2.06342 12.2582 2.08773C12.1995 2.11204 12.1462 2.14767 12.1013 2.19259Z" stroke="#5271FF" stroke-width="2" stroke-linecap="round" stroke-linejoin="round"/>
</svg>
