<svg width="22" height="18" viewBox="0 0 22 18" fill="none" xmlns="http://www.w3.org/2000/svg">
<path d="M20.75 0.75H1.25C1.05109 0.75 0.860322 0.829018 0.71967 0.96967C0.579018 1.11032 0.5 1.30109 0.5 1.5V16.5C0.5 16.6989 0.579018 16.8897 0.71967 17.0303C0.860322 17.171 1.05109 17.25 1.25 17.25H20.75C20.9489 17.25 21.1397 17.171 21.2803 17.0303C21.421 16.8897 21.5 16.6989 21.5 16.5V1.5C21.5 1.30109 21.421 1.11032 21.2803 0.96967C21.1397 0.829018 20.9489 0.75 20.75 0.75ZM11.4603 10.342C11.3287 10.4444 11.1667 10.4999 11 10.4999C10.8333 10.4999 10.6713 10.4444 10.5397 10.342L3.19766 4.63172L4.11828 3.44766L11 8.79984L17.8817 3.44766L18.8023 4.63172L11.4603 10.342Z" fill="#37C6FF"/>
</svg>
