<svg width="15" height="10" viewBox="0 0 15 10" fill="none" xmlns="http://www.w3.org/2000/svg">
<path d="M14.3802 4.49023C13.605 3.29141 12.5992 2.27305 11.4719 1.54502C10.2247 0.73877 8.84776 0.3125 7.49014 0.3125C6.24444 0.3125 5.01953 0.668457 3.84941 1.37041C2.65615 2.08613 1.5751 3.13174 0.636131 4.47793C0.530131 4.63007 0.471752 4.81029 0.468413 4.99568C0.465075 5.18108 0.516927 5.36328 0.617381 5.51914C1.39111 6.72998 2.38691 7.7498 3.49668 8.46787C4.74619 9.27734 6.09092 9.6875 7.49014 9.6875C8.8586 9.6875 10.2385 9.26475 11.4804 8.46523C12.6071 7.73955 13.6108 6.71738 14.3831 5.50859C14.4801 5.35636 14.5314 5.17949 14.5309 4.99898C14.5303 4.81848 14.4781 4.64191 14.3802 4.49023V4.49023ZM7.5001 7.8125C6.94384 7.8125 6.40007 7.64755 5.93756 7.33851C5.47504 7.02947 5.11456 6.59021 4.90169 6.0763C4.68882 5.56238 4.63312 4.99688 4.74164 4.45131C4.85016 3.90574 5.11803 3.4046 5.51136 3.01126C5.9047 2.61793 6.40584 2.35006 6.95141 2.24154C7.49698 2.13302 8.06248 2.18872 8.5764 2.40159C9.09032 2.61446 9.52957 2.97495 9.83861 3.43746C10.1477 3.89997 10.3126 4.44374 10.3126 5C10.3118 5.74566 10.0152 6.46053 9.4879 6.9878C8.96064 7.51506 8.24576 7.81165 7.5001 7.8125V7.8125Z" fill="#5271FF"/>
</svg>
