<svg width="18" height="19" viewBox="0 0 18 19" fill="none" xmlns="http://www.w3.org/2000/svg">
<path d="M15.0469 8.375H10.125C9.67745 8.375 9.24822 8.19721 8.93176 7.88074C8.61529 7.56428 8.4375 7.13505 8.4375 6.6875V1.76562C8.4375 1.72833 8.42268 1.69256 8.39631 1.66619C8.36994 1.63982 8.33417 1.625 8.29688 1.625H5.0625C4.46576 1.625 3.89347 1.86205 3.47151 2.28401C3.04955 2.70597 2.8125 3.27826 2.8125 3.875V15.125C2.8125 15.7217 3.04955 16.294 3.47151 16.716C3.89347 17.1379 4.46576 17.375 5.0625 17.375H12.9375C13.5342 17.375 14.1065 17.1379 14.5285 16.716C14.9504 16.294 15.1875 15.7217 15.1875 15.125V8.51562C15.1875 8.47833 15.1727 8.44256 15.1463 8.41619C15.1199 8.38982 15.0842 8.375 15.0469 8.375ZM11.8125 14H6.1875C6.03832 14 5.89524 13.9407 5.78975 13.8352C5.68426 13.7298 5.625 13.5867 5.625 13.4375C5.625 13.2883 5.68426 13.1452 5.78975 13.0398C5.89524 12.9343 6.03832 12.875 6.1875 12.875H11.8125C11.9617 12.875 12.1048 12.9343 12.2102 13.0398C12.3157 13.1452 12.375 13.2883 12.375 13.4375C12.375 13.5867 12.3157 13.7298 12.2102 13.8352C12.1048 13.9407 11.9617 14 11.8125 14ZM11.8125 11.1875H6.1875C6.03832 11.1875 5.89524 11.1282 5.78975 11.0227C5.68426 10.9173 5.625 10.7742 5.625 10.625C5.625 10.4758 5.68426 10.3327 5.78975 10.2273C5.89524 10.1218 6.03832 10.0625 6.1875 10.0625H11.8125C11.9617 10.0625 12.1048 10.1218 12.2102 10.2273C12.3157 10.3327 12.375 10.4758 12.375 10.625C12.375 10.7742 12.3157 10.9173 12.2102 11.0227C12.1048 11.1282 11.9617 11.1875 11.8125 11.1875Z" fill="#062144"/>
<path d="M14.7382 7.13022L9.68238 2.0744C9.67255 2.06463 9.66005 2.05798 9.64645 2.05529C9.63285 2.0526 9.61876 2.05399 9.60594 2.05929C9.59313 2.06459 9.58217 2.07355 9.57444 2.08506C9.56671 2.09657 9.56256 2.11011 9.5625 2.12397V6.68761C9.5625 6.83679 9.62176 6.97986 9.72725 7.08535C9.83274 7.19084 9.97581 7.25011 10.125 7.25011H14.6886C14.7025 7.25005 14.716 7.24589 14.7275 7.23816C14.739 7.23043 14.748 7.21947 14.7533 7.20666C14.7586 7.19385 14.76 7.17976 14.7573 7.16616C14.7546 7.15256 14.748 7.14005 14.7382 7.13022Z" fill="#062144"/>
</svg>
