<svg width="84" height="40" viewBox="0 0 84 40" fill="none" xmlns="http://www.w3.org/2000/svg">
<rect width="84" height="40" rx="4.24" fill="#D5D5D5"/>
<path d="M44.2458 19.625C44.2913 19.625 44.3359 19.6141 44.3738 19.5937C44.4118 19.5733 44.4414 19.5442 44.4591 19.5102C44.4767 19.4761 44.4816 19.4386 44.4731 19.4023C44.4645 19.366 44.443 19.3326 44.4111 19.3062L39.8802 15.5694C39.848 15.5428 39.8068 15.5247 39.7619 15.5172C39.7169 15.5098 39.6703 15.5133 39.6278 15.5275C39.5854 15.5416 39.549 15.5656 39.5235 15.5966C39.498 15.6275 39.4843 15.6639 39.4844 15.7011V19.0625C39.4844 19.2117 39.5574 19.3547 39.6875 19.4602C39.8176 19.5657 39.9939 19.625 40.1779 19.625H44.2458Z" fill="#B8B8B8"/>
<path d="M38.3863 20.5156C38.1489 20.3257 37.9603 20.0995 37.8313 19.85C37.7024 19.6006 37.6356 19.333 37.635 19.0625V14.75H33.474C32.494 14.7523 31.5549 15.0692 30.8619 15.6313C30.1689 16.1934 29.7783 16.9551 29.7754 17.75V28.25C29.7754 29.0456 30.1651 29.8087 30.8587 30.3713C31.5523 30.9339 32.4931 31.25 33.474 31.25H41.7959C42.7769 31.25 43.7176 30.9339 44.4113 30.3713C45.1049 29.8087 45.4946 29.0456 45.4946 28.25V21.125H40.1778C39.8443 21.1246 39.5143 21.0706 39.2067 20.966C38.8992 20.8613 38.6203 20.7083 38.3863 20.5156Z" fill="#B8B8B8"/>
<path d="M48.5001 13.625H52.5681C52.6136 13.625 52.6581 13.6141 52.6961 13.5937C52.734 13.5733 52.7637 13.5442 52.7813 13.5102C52.799 13.4761 52.8039 13.4386 52.7953 13.4023C52.7868 13.3661 52.7652 13.3326 52.7333 13.3062L48.2025 9.56936C48.1703 9.54285 48.1291 9.5247 48.0842 9.51724C48.0392 9.50977 47.9925 9.51333 47.9501 9.52746C47.9076 9.54158 47.8713 9.56564 47.8458 9.59656C47.8202 9.62748 47.8066 9.66386 47.8066 9.70108V13.0625C47.8066 13.2117 47.8797 13.3548 48.0098 13.4602C48.1398 13.5657 48.3162 13.625 48.5001 13.625Z" fill="#B8B8B8"/>
<path d="M48.4998 15.125C47.827 15.1208 47.1832 14.9022 46.7074 14.5163C46.2316 14.1304 45.9621 13.6082 45.957 13.0625V8.75H39.7155C38.7962 8.75087 37.9149 9.04746 37.2648 9.57472C36.6148 10.102 36.2491 10.8168 36.248 11.5625V13.25H38.6822C38.9929 13.251 39.3003 13.3018 39.5867 13.3995C39.8731 13.4971 40.1329 13.6397 40.3512 13.8191L46.6597 19.0222C47.0998 19.3844 47.3455 19.873 47.3434 20.3816V26.75H50.4092C52.288 26.75 53.816 25.4881 53.816 23.9375V15.125H48.4998Z" fill="#B8B8B8"/>
</svg>
