<svg width="18" height="19" viewBox="0 0 18 19" fill="none" xmlns="http://www.w3.org/2000/svg">
<path d="M17.4375 5.84375C17.4375 5.32161 17.2301 4.82085 16.8609 4.45164C16.4917 4.08243 15.9909 3.875 15.4688 3.875H7.73824C7.57178 3.87554 7.40891 3.82659 7.27031 3.73438L6.29297 3.08082C5.96933 2.86441 5.58859 2.74924 5.19926 2.75H2.53125C2.00911 2.75 1.50835 2.95743 1.13913 3.32664C0.769921 3.69585 0.5625 4.19661 0.5625 4.71875V6.40625C0.5625 6.48085 0.592132 6.55238 0.644876 6.60513C0.697621 6.65787 0.769158 6.6875 0.84375 6.6875H17.1562C17.2308 6.6875 17.3024 6.65787 17.3551 6.60513C17.4079 6.55238 17.4375 6.48085 17.4375 6.40625V5.84375Z" fill="#062144"/>
<path d="M0.5625 14.2812C0.5625 14.8034 0.769921 15.3042 1.13913 15.6734C1.50835 16.0426 2.00911 16.25 2.53125 16.25H15.4688C15.9909 16.25 16.4917 16.0426 16.8609 15.6734C17.2301 15.3042 17.4375 14.8034 17.4375 14.2812V8.09375C17.4375 8.01916 17.4079 7.94762 17.3551 7.89488C17.3024 7.84213 17.2308 7.8125 17.1562 7.8125H0.84375C0.769158 7.8125 0.697621 7.84213 0.644876 7.89488C0.592132 7.94762 0.5625 8.01916 0.5625 8.09375V14.2812Z" fill="#062144"/>
</svg>
