<svg width="24" height="24" viewBox="0 0 24 24" fill="none" xmlns="http://www.w3.org/2000/svg">
<path d="M4.03116 3.00033L3 4.03149L19.9689 21.0004L21.0001 19.9692L4.03116 3.00033Z" fill="#D5D5D5"/>
<path d="M12.1562 9.00415L14.9955 11.8434C14.956 11.1032 14.6442 10.4037 14.1201 9.87954C13.5959 9.35539 12.8965 9.04359 12.1562 9.00415Z" fill="#D5D5D5"/>
<path d="M11.8431 14.9957L9.00391 12.1565C9.04335 12.8967 9.35514 13.5962 9.87929 14.1203C10.4034 14.6445 11.1029 14.9563 11.8431 14.9957Z" fill="#D5D5D5"/>
<path d="M12 16.4999C11.3077 16.4999 10.6248 16.3403 10.0043 16.0333C9.38376 15.7263 8.84246 15.2803 8.42248 14.7299C8.00249 14.1796 7.71514 13.5398 7.58278 12.8602C7.45043 12.1807 7.47664 11.4798 7.65937 10.8121L4.42172 7.57397C3.09938 8.78522 1.83938 10.3658 0.75 11.9999C1.98844 14.0624 3.6825 16.183 5.44687 17.399C7.47094 18.793 9.67172 19.4999 11.9887 19.4999C13.255 19.5008 14.5117 19.2819 15.7031 18.853L13.1902 16.3405C12.8024 16.4467 12.4021 16.5003 12 16.4999Z" fill="#D5D5D5"/>
<path d="M11.9996 7.5C12.6919 7.49997 13.3749 7.65966 13.9954 7.96665C14.6159 8.27365 15.1572 8.71966 15.5771 9.27C15.9971 9.82034 16.2845 10.4602 16.4168 11.1397C16.5492 11.8192 16.523 12.5201 16.3402 13.1878L19.6524 16.5C21.0188 15.2695 22.2807 13.6144 23.2496 12C22.0131 9.96422 20.3012 7.84875 18.5068 6.61781C16.4574 5.2125 14.2641 4.5 11.9884 4.5C10.7361 4.5018 9.49429 4.72869 8.32227 5.16984L10.8118 7.65937C11.1988 7.55344 11.5983 7.49984 11.9996 7.5Z" fill="#D5D5D5"/>
</svg>
