<svg width="18" height="19" viewBox="0 0 18 19" fill="none" xmlns="http://www.w3.org/2000/svg">
<path d="M14.625 2.75H3.375C2.77846 2.75065 2.20654 2.98791 1.78473 3.40973C1.36291 3.83154 1.12565 4.40346 1.125 5V14C1.12565 14.5965 1.36291 15.1685 1.78473 15.5903C2.20654 16.0121 2.77846 16.2493 3.375 16.25H14.625C15.2215 16.2493 15.7935 16.0121 16.2153 15.5903C16.6371 15.1685 16.8743 14.5965 16.875 14V5C16.8743 4.40346 16.6371 3.83154 16.2153 3.40973C15.7935 2.98791 15.2215 2.75065 14.625 2.75ZM11.8125 5C12.1463 5 12.4725 5.09897 12.75 5.2844C13.0275 5.46982 13.2438 5.73337 13.3715 6.04172C13.4993 6.35007 13.5327 6.68937 13.4676 7.01672C13.4025 7.34406 13.2417 7.64474 13.0057 7.88074C12.7697 8.11674 12.4691 8.27746 12.1417 8.34258C11.8144 8.40769 11.4751 8.37427 11.1667 8.24655C10.8584 8.11882 10.5948 7.90253 10.4094 7.62502C10.224 7.34752 10.125 7.02126 10.125 6.6875C10.1255 6.24009 10.3034 5.81114 10.6198 5.49477C10.9361 5.1784 11.3651 5.00047 11.8125 5ZM3.375 15.125C3.07663 15.125 2.79048 15.0065 2.5795 14.7955C2.36853 14.5845 2.25 14.2984 2.25 14V11.6224L5.58422 8.65871C5.90591 8.3734 6.32428 8.22148 6.75409 8.23389C7.1839 8.2463 7.5928 8.42211 7.8975 8.72551L10.1809 11.004L6.05988 15.125H3.375ZM15.75 14C15.75 14.2984 15.6315 14.5845 15.4205 14.7955C15.2095 15.0065 14.9234 15.125 14.625 15.125H7.65105L11.9197 10.8563C12.222 10.5993 12.6055 10.4577 13.0022 10.4567C13.3989 10.4557 13.7832 10.5953 14.0868 10.8507L15.75 12.2366V14Z" fill="#062144"/>
</svg>
