<svg width="50" height="51" viewBox="0 0 50 51" fill="none" xmlns="http://www.w3.org/2000/svg">
<rect y="0.577209" width="50" height="50" rx="10" fill="#5271FF"/>
<path d="M22.27 16.335C20.4353 15.4591 17.8708 15.03 14.4375 15.0147C14.1137 15.0103 13.7963 15.1048 13.5275 15.2854C13.3069 15.4345 13.1263 15.6355 13.0016 15.8708C12.877 16.1061 12.812 16.3684 12.8125 16.6347V31.1632C12.8125 32.1453 13.5113 32.8862 14.4375 32.8862C18.0465 32.8862 21.6667 33.2234 23.8351 35.2729C23.8647 35.3011 23.902 35.3199 23.9423 35.327C23.9826 35.3342 24.0241 35.3294 24.0616 35.3131C24.0991 35.2969 24.1311 35.27 24.1535 35.2358C24.1759 35.2015 24.1877 35.1615 24.1875 35.1206V18.0017C24.1876 17.8862 24.1629 17.772 24.115 17.6669C24.0672 17.5618 23.9974 17.4681 23.9102 17.3923C23.4135 16.9677 22.8618 16.6121 22.27 16.335Z" fill="white"/>
<path d="M36.4725 15.2839C36.2036 15.1037 35.8861 15.0098 35.5625 15.0147C32.1292 15.0299 29.5647 15.457 27.73 16.335C27.1382 16.6115 26.5863 16.9665 26.0893 17.3903C26.0023 17.4662 25.9326 17.5599 25.8849 17.665C25.8372 17.7701 25.8125 17.8842 25.8125 17.9996V35.1195C25.8125 35.1588 25.8241 35.1973 25.8458 35.23C25.8675 35.2628 25.8985 35.2884 25.9347 35.3036C25.9709 35.3188 26.0108 35.323 26.0495 35.3157C26.0881 35.3083 26.1236 35.2897 26.1517 35.2622C27.4553 33.9673 29.743 32.8846 35.5645 32.8851C35.9955 32.8851 36.4088 32.7139 36.7136 32.4092C37.0183 32.1044 37.1895 31.6911 37.1895 31.2601V16.6351C37.1901 16.3684 37.125 16.1055 37 15.8698C36.8749 15.6342 36.6937 15.4329 36.4725 15.2839Z" fill="white"/>
</svg>
