<svg width="15" height="16" viewBox="0 0 15 16" fill="none" xmlns="http://www.w3.org/2000/svg">
<path d="M4.6875 4.48438V7.53125H9.18076L7.6374 5.9876C7.55321 5.89897 7.50696 5.78097 7.50852 5.65874C7.51009 5.5365 7.55934 5.41972 7.64578 5.33328C7.73222 5.24684 7.849 5.19759 7.97123 5.19602C8.09347 5.19446 8.21147 5.24071 8.3001 5.3249L10.6438 7.66865C10.7317 7.75655 10.781 7.87573 10.781 8C10.781 8.12427 10.7317 8.24345 10.6438 8.33135L8.3001 10.6751C8.21147 10.7593 8.09347 10.8055 7.97123 10.804C7.849 10.8024 7.73222 10.7532 7.64578 10.6667C7.55934 10.5803 7.51009 10.4635 7.50852 10.3413C7.50696 10.219 7.55321 10.101 7.6374 10.0124L9.18076 8.46875H4.6875V11.5156C4.68797 11.9506 4.86097 12.3676 5.16854 12.6752C5.47612 12.9828 5.89315 13.1558 6.32812 13.1562H12.4219C12.8569 13.1558 13.2739 12.9828 13.5815 12.6752C13.889 12.3676 14.062 11.9506 14.0625 11.5156V4.48438C14.062 4.0494 13.889 3.63237 13.5815 3.32479C13.2739 3.01722 12.8569 2.84422 12.4219 2.84375H6.32812C5.89315 2.84422 5.47612 3.01722 5.16854 3.32479C4.86097 3.63237 4.68797 4.0494 4.6875 4.48438Z" fill="#FF5858"/>
<path d="M1.40625 7.53125C1.28193 7.53125 1.1627 7.58064 1.07479 7.66854C0.986886 7.75645 0.9375 7.87568 0.9375 8C0.9375 8.12432 0.986886 8.24355 1.07479 8.33146C1.1627 8.41936 1.28193 8.46875 1.40625 8.46875H4.6875V7.53125H1.40625Z" fill="#FF5858"/>
</svg>
