<svg width="25" height="25" viewBox="0 0 25 25" fill="none" xmlns="http://www.w3.org/2000/svg">
<g clip-path="url(#clip0_882_1520)">
<path d="M6.7709 16.4015C6.7709 16.4035 6.7709 16.4073 6.76855 16.4126C6.76943 16.4091 6.77002 16.4053 6.7709 16.4015Z" fill="#062144"/>
<path d="M17.8877 16.8828C17.7913 16.8807 17.696 16.8609 17.6068 16.8242L15.9433 16.2345L15.931 16.2295C15.8947 16.2144 15.8557 16.2068 15.8164 16.2072C15.7802 16.2073 15.7443 16.2138 15.7104 16.2266C15.6699 16.2418 15.3058 16.3786 14.9237 16.4835C14.7166 16.5403 13.9956 16.7258 13.417 16.7258C11.9381 16.7258 10.5553 16.1574 9.52375 15.1253C9.01981 14.6245 8.62023 14.0286 8.34812 13.3723C8.07601 12.716 7.93678 12.0122 7.93849 11.3018C7.93848 10.9316 7.97836 10.5624 8.05744 10.2008C8.31496 9.01075 8.99699 7.92823 9.97785 7.15391C10.984 6.36466 12.2261 5.93628 13.5049 5.9375C15.0345 5.9375 16.4598 6.52344 17.5186 7.5834C18.5194 8.5874 19.0678 9.90752 19.0634 11.3003C19.0625 12.3352 18.7535 13.3465 18.1757 14.2051L18.1701 14.2133L18.1485 14.2426C18.1435 14.2493 18.1385 14.2558 18.1338 14.2625L18.1294 14.2704C18.1178 14.2902 18.1072 14.3107 18.0978 14.3316L18.5589 15.9705C18.5793 16.0381 18.5903 16.1082 18.5917 16.1788C18.5918 16.2713 18.5737 16.3629 18.5384 16.4484C18.503 16.5338 18.4512 16.6115 18.3858 16.6769C18.3204 16.7423 18.2427 16.7941 18.1573 16.8295C18.0718 16.8648 17.9802 16.8829 17.8877 16.8828Z" fill="#062144"/>
<path d="M13.7853 17.4626C13.755 17.4037 13.7124 17.352 13.6604 17.3111C13.6084 17.2701 13.5481 17.2409 13.4838 17.2253C13.3145 17.1804 13.117 17.1881 12.9661 17.1769C11.5415 17.0779 10.2009 16.4665 9.1921 15.4557C8.29525 14.5639 7.71239 13.4049 7.53126 12.1531C7.49025 11.8677 7.49025 11.7968 7.49025 11.7968C7.49023 11.7016 7.46122 11.6087 7.40708 11.5304C7.35295 11.4521 7.27624 11.3921 7.18719 11.3584C7.09813 11.3248 7.00093 11.3191 6.90853 11.342C6.81613 11.3649 6.73291 11.4155 6.66994 11.4869C6.66994 11.4869 6.43908 11.7383 6.33009 11.9905C6.02443 12.6948 5.89408 13.4626 5.95021 14.2283C6.00634 14.994 6.24727 15.7346 6.65236 16.3868C6.72853 16.5137 6.72853 16.5722 6.71154 16.7041C6.63156 17.1175 6.49152 17.8467 6.41857 18.2249C6.39442 18.3475 6.4034 18.4744 6.4446 18.5924C6.48579 18.7105 6.55771 18.8154 6.65294 18.8964L6.66642 18.9078C6.7924 19.0078 6.94851 19.0624 7.10939 19.0625C7.19988 19.0626 7.28949 19.0447 7.37306 19.01L8.94074 18.4051C8.99471 18.3845 9.05434 18.3845 9.10831 18.4051C9.7256 18.6347 10.3681 18.7566 10.9769 18.7566C11.7354 18.7573 12.4848 18.5907 13.1715 18.2685C13.3315 18.1935 13.5817 18.1121 13.7281 17.9428C13.7836 17.8771 13.8185 17.7966 13.8287 17.7112C13.8388 17.6259 13.8237 17.5394 13.7853 17.4626Z" fill="#062144"/>
</g>
<rect x="0.5" y="0.5" width="24" height="24" rx="4.5" stroke="#062144"/>
<defs>
<clipPath id="clip0_882_1520">
<rect width="15" height="15" fill="white" transform="translate(5 5)"/>
</clipPath>
</defs>
</svg>
