<svg width="18" height="18" viewBox="0 0 18 18" fill="none" xmlns="http://www.w3.org/2000/svg">
<path d="M13.4778 11.2584L12.018 12.0788C11.8428 12.1772 11.6401 12.2157 11.4409 12.1884C11.2418 12.1611 11.057 12.0696 10.9149 11.9277L6.04248 7.06683C5.90038 6.92498 5.80866 6.74068 5.78131 6.542C5.75396 6.34332 5.79247 6.14117 5.89099 5.96636L6.71341 4.50998C6.86145 4.24786 6.91941 3.94461 6.87844 3.64653C6.83746 3.34846 6.69981 3.07196 6.48651 2.85928L4.2985 0.676455C4.17026 0.548455 4.01799 0.446916 3.8504 0.377639C3.68282 0.308362 3.50319 0.272705 3.32178 0.272705C3.14038 0.272705 2.96075 0.308362 2.79316 0.377639C2.62557 0.446916 2.47331 0.548455 2.34507 0.676455L1.35159 1.66688C0.770643 2.24644 0.400588 3.00313 0.300272 3.81663C0.199955 4.63014 0.375136 5.45375 0.79796 6.1565L1.29644 6.98534C3.84207 11.2179 7.43515 14.7269 11.731 17.1758L11.8295 17.2322C13.297 18.0687 15.1101 17.8249 16.2851 16.6534L17.3225 15.6184C17.4508 15.4905 17.5526 15.3386 17.6221 15.1714C17.6915 15.0042 17.7273 14.825 17.7273 14.644C17.7273 14.4631 17.6915 14.2839 17.6221 14.1167C17.5526 13.9495 17.4508 13.7976 17.3225 13.6696L15.1331 11.4854C14.92 11.2723 14.6427 11.1348 14.3438 11.0938C14.0449 11.0528 13.7407 11.1106 13.4778 11.2584Z" fill="#37C6FF"/>
</svg>
