<svg width="15" height="14" viewBox="0 0 15 14" fill="none" xmlns="http://www.w3.org/2000/svg">
<path d="M13.9626 6.15178L13.9579 6.14973L1.4458 0.960077C1.34056 0.916029 1.22604 0.898753 1.11249 0.909797C0.998941 0.92084 0.889898 0.959857 0.795117 1.02336C0.694979 1.08897 0.612724 1.17846 0.555754 1.28375C0.498784 1.38905 0.468886 1.50686 0.46875 1.62658V4.94562C0.468806 5.10929 0.525955 5.26781 0.630347 5.39386C0.73474 5.51991 0.879835 5.6056 1.04063 5.63615L7.86475 6.89797C7.89156 6.90305 7.91576 6.91734 7.93317 6.93835C7.95058 6.95937 7.9601 6.98581 7.9601 7.0131C7.9601 7.0404 7.95058 7.06683 7.93317 7.08785C7.91576 7.10887 7.89156 7.12316 7.86475 7.12824L1.04092 8.39006C0.880173 8.42053 0.735086 8.5061 0.630647 8.63204C0.526208 8.75798 0.468955 8.91639 0.46875 9.08V12.3996C0.468672 12.5139 0.496979 12.6265 0.551129 12.7272C0.60528 12.8279 0.68358 12.9135 0.779004 12.9765C0.893789 13.0527 1.0285 13.0935 1.16631 13.0937C1.26212 13.0936 1.35694 13.0744 1.44521 13.0371L13.957 7.87707L13.9626 7.87443C14.131 7.80205 14.2745 7.68189 14.3754 7.5288C14.4762 7.37571 14.5299 7.19642 14.5299 7.0131C14.5299 6.82979 14.4762 6.6505 14.3754 6.49741C14.2745 6.34432 14.131 6.22416 13.9626 6.15178Z" fill="white"/>
</svg>
