<svg width="15" height="15" viewBox="0 0 15 15" fill="none" xmlns="http://www.w3.org/2000/svg">
<path d="M8.49458 7.5L11.2778 4.7168C11.4099 4.58494 11.4842 4.40601 11.4843 4.21937C11.4845 4.03273 11.4105 3.85367 11.2787 3.72158C11.1468 3.58949 10.9679 3.51519 10.7812 3.51503C10.5946 3.51486 10.4155 3.58884 10.2834 3.7207L7.50024 6.5039L4.71704 3.7207C4.58495 3.58861 4.4058 3.5144 4.21899 3.5144C4.03219 3.5144 3.85304 3.58861 3.72095 3.7207C3.58886 3.85279 3.51465 4.03194 3.51465 4.21875C3.51465 4.40555 3.58886 4.5847 3.72095 4.7168L6.50415 7.5L3.72095 10.2832C3.58886 10.4153 3.51465 10.5944 3.51465 10.7812C3.51465 10.968 3.58886 11.1472 3.72095 11.2793C3.85304 11.4114 4.03219 11.4856 4.21899 11.4856C4.4058 11.4856 4.58495 11.4114 4.71704 11.2793L7.50024 8.49609L10.2834 11.2793C10.4155 11.4114 10.5947 11.4856 10.7815 11.4856C10.9683 11.4856 11.1474 11.4114 11.2795 11.2793C11.4116 11.1472 11.4858 10.968 11.4858 10.7812C11.4858 10.5944 11.4116 10.4153 11.2795 10.2832L8.49458 7.5Z" fill="#B8B8B8"/>
</svg>
