<svg width="15" height="16" viewBox="0 0 15 16" fill="none" xmlns="http://www.w3.org/2000/svg">
<path d="M13.6506 4.0086L11.4914 1.84942C11.3611 1.71842 11.2062 1.61456 11.0355 1.54385C10.8648 1.47315 10.6818 1.437 10.4971 1.43751H2.8125C2.31522 1.43751 1.83831 1.63505 1.48667 1.98668C1.13504 2.33831 0.9375 2.81522 0.9375 3.31251V12.6875C0.9375 13.1848 1.13504 13.6617 1.48667 14.0133C1.83831 14.365 2.31522 14.5625 2.8125 14.5625H12.1875C12.6848 14.5625 13.1617 14.365 13.5133 14.0133C13.865 13.6617 14.0625 13.1848 14.0625 12.6875V5.00294C14.063 4.81819 14.0269 4.63518 13.9562 4.4645C13.8854 4.29382 13.7816 4.13887 13.6506 4.0086ZM3.51562 3.78126H8.67187C8.73403 3.78126 8.79365 3.80595 8.8376 3.8499C8.88156 3.89386 8.90625 3.95347 8.90625 4.01563V5.42188C8.90625 5.48404 8.88156 5.54366 8.8376 5.58761C8.79365 5.63156 8.73403 5.65626 8.67187 5.65626H3.51562C3.45346 5.65626 3.39385 5.63156 3.3499 5.58761C3.30594 5.54366 3.28125 5.48404 3.28125 5.42188V4.01563C3.28125 3.95347 3.30594 3.89386 3.3499 3.8499C3.39385 3.80595 3.45346 3.78126 3.51562 3.78126ZM7.60986 13.1536C7.13746 13.1758 6.66941 13.0546 6.26719 12.8058C5.86497 12.5571 5.54741 12.1925 5.35623 11.7599C5.16506 11.3274 5.10921 10.8471 5.19602 10.3822C5.28284 9.91732 5.50826 9.48957 5.84266 9.15517C6.17706 8.82076 6.60481 8.59534 7.06969 8.50853C7.53457 8.42171 8.01485 8.47756 8.4474 8.66874C8.87996 8.85992 9.24456 9.17748 9.4933 9.5797C9.74204 9.98191 9.86329 10.45 9.84111 10.9224C9.81335 11.5052 9.56936 12.0567 9.15679 12.4693C8.74421 12.8819 8.19267 13.1259 7.60986 13.1536Z" fill="white"/>
<path d="M7.5 12.2188C8.27665 12.2188 8.90625 11.5892 8.90625 10.8125C8.90625 10.0358 8.27665 9.40625 7.5 9.40625C6.72335 9.40625 6.09375 10.0358 6.09375 10.8125C6.09375 11.5892 6.72335 12.2188 7.5 12.2188Z" fill="white"/>
</svg>
