<svg width="18" height="18" viewBox="0 0 18 18" fill="none" xmlns="http://www.w3.org/2000/svg">
<path d="M17.125 15.7188L12.2781 10.8711C13.0592 9.79771 13.4794 8.50407 13.4781 7.17656C13.4781 3.70195 10.6512 0.875 7.17656 0.875C3.70195 0.875 0.875 3.70195 0.875 7.17656C0.875 10.6512 3.70195 13.4781 7.17656 13.4781C8.50407 13.4794 9.79771 13.0592 10.8711 12.2781L15.7188 17.125L17.125 15.7188ZM7.17656 11.4879C6.32375 11.488 5.49007 11.2351 4.78095 10.7614C4.07183 10.2877 3.51913 9.61425 3.19274 8.82638C2.86635 8.0385 2.78093 7.17152 2.94728 6.33509C3.11364 5.49866 3.5243 4.73035 4.12733 4.12733C4.73035 3.5243 5.49866 3.11364 6.33509 2.94728C7.17152 2.78093 8.0385 2.86635 8.82638 3.19274C9.61425 3.51913 10.2877 4.07183 10.7614 4.78095C11.2351 5.49007 11.488 6.32375 11.4879 7.17656C11.4865 8.31959 11.0319 9.41541 10.2236 10.2236C9.41541 11.0319 8.31959 11.4865 7.17656 11.4879Z" fill="#D5D5D5"/>
</svg>
