<svg width="37" height="37" viewBox="0 0 37 37" fill="none" xmlns="http://www.w3.org/2000/svg">
<rect width="36.25" height="36.25" rx="10" fill="#5271FF"/>
<path d="M26.25 24.8438L21.4031 19.9961C22.1842 18.9227 22.6044 17.6291 22.6031 16.3016C22.6031 12.827 19.7762 10 16.3016 10C12.827 10 10 12.827 10 16.3016C10 19.7762 12.827 22.6031 16.3016 22.6031C17.6291 22.6044 18.9227 22.1842 19.9961 21.4031L24.8438 26.25L26.25 24.8438ZM16.3016 20.6129C15.4488 20.613 14.6151 20.3601 13.906 19.8864C13.1968 19.4127 12.6441 18.7393 12.3177 17.9514C11.9913 17.1635 11.9059 16.2965 12.0723 15.4601C12.2386 14.6237 12.6493 13.8554 13.2523 13.2523C13.8554 12.6493 14.6237 12.2386 15.4601 12.0723C16.2965 11.9059 17.1635 11.9913 17.9514 12.3177C18.7393 12.6441 19.4127 13.1968 19.8864 13.906C20.3601 14.6151 20.613 15.4488 20.6129 16.3016C20.6115 17.4446 20.1569 18.5404 19.3486 19.3486C18.5404 20.1569 17.4446 20.6115 16.3016 20.6129Z" fill="white"/>
</svg>
