<svg width="248" height="248" viewBox="0 0 248 248" fill="none" xmlns="http://www.w3.org/2000/svg">
<path d="M207.312 108.5H139.5C133.334 108.5 127.42 106.05 123.06 101.69C118.7 97.33 116.25 91.4163 116.25 85.25V17.4375C116.25 16.9236 116.046 16.4308 115.683 16.0675C115.319 15.7041 114.826 15.5 114.312 15.5H69.75C61.5283 15.5 53.6433 18.7661 47.8297 24.5797C42.0161 30.3933 38.75 38.2783 38.75 46.5V201.5C38.75 209.722 42.0161 217.607 47.8297 223.42C53.6433 229.234 61.5283 232.5 69.75 232.5H178.25C186.472 232.5 194.357 229.234 200.17 223.42C205.984 217.607 209.25 209.722 209.25 201.5V110.438C209.25 109.924 209.046 109.431 208.683 109.067C208.319 108.704 207.826 108.5 207.312 108.5ZM162.75 186H85.25C83.1946 186 81.2233 185.183 79.7699 183.73C78.3165 182.277 77.5 180.305 77.5 178.25C77.5 176.195 78.3165 174.223 79.7699 172.77C81.2233 171.317 83.1946 170.5 85.25 170.5H162.75C164.805 170.5 166.777 171.317 168.23 172.77C169.683 174.223 170.5 176.195 170.5 178.25C170.5 180.305 169.683 182.277 168.23 183.73C166.777 185.183 164.805 186 162.75 186ZM162.75 147.25H85.25C83.1946 147.25 81.2233 146.433 79.7699 144.98C78.3165 143.527 77.5 141.555 77.5 139.5C77.5 137.445 78.3165 135.473 79.7699 134.02C81.2233 132.567 83.1946 131.75 85.25 131.75H162.75C164.805 131.75 166.777 132.567 168.23 134.02C169.683 135.473 170.5 137.445 170.5 139.5C170.5 141.555 169.683 143.527 168.23 144.98C166.777 146.433 164.805 147.25 162.75 147.25Z" fill="#EAEAEA"/>
<path d="M203.06 91.3483L133.402 21.6903C133.266 21.5556 133.094 21.464 132.907 21.427C132.719 21.3899 132.525 21.4091 132.349 21.4821C132.172 21.5551 132.021 21.6786 131.915 21.8372C131.808 21.9958 131.751 22.1823 131.75 22.3733V85.25C131.75 87.3054 132.567 89.2767 134.02 90.7301C135.473 92.1835 137.445 93 139.5 93H202.377C202.568 92.9992 202.754 92.9419 202.913 92.8354C203.071 92.7289 203.195 92.5779 203.268 92.4014C203.341 92.2249 203.36 92.0308 203.323 91.8434C203.286 91.656 203.194 91.4837 203.06 91.3483V91.3483Z" fill="#EAEAEA"/>
</svg>
