<svg width="248" height="248" viewBox="0 0 248 248" fill="none" xmlns="http://www.w3.org/2000/svg">
<path d="M232.5 62C232.5 53.7783 229.234 45.8933 223.42 40.0797C217.607 34.2661 209.722 31 201.5 31H193.75V23.468C193.75 19.2975 190.543 15.718 186.373 15.5097C185.325 15.4592 184.278 15.622 183.295 15.9882C182.312 16.3544 181.413 16.9164 180.654 17.6401C179.894 18.3638 179.29 19.2342 178.876 20.1985C178.463 21.1628 178.25 22.2009 178.25 23.25V31H69.75V23.468C69.75 19.2975 66.5434 15.718 62.373 15.5097C61.3251 15.4592 60.2779 15.622 59.2948 15.9882C58.3117 16.3544 57.4132 16.9164 56.6537 17.6401C55.8942 18.3638 55.2895 19.2342 54.8764 20.1985C54.4632 21.1628 54.2501 22.2009 54.25 23.25V31H46.5C38.2783 31 30.3933 34.2661 24.5797 40.0797C18.7661 45.8933 15.5 53.7783 15.5 62V67.8125C15.5 68.3264 15.7041 68.8192 16.0675 69.1826C16.4308 69.5459 16.9236 69.75 17.4375 69.75H230.562C231.076 69.75 231.569 69.5459 231.933 69.1826C232.296 68.8192 232.5 68.3264 232.5 67.8125V62Z" fill="#EAEAEA"/>
<path d="M15.5 201.5C15.5 209.722 18.7661 217.607 24.5797 223.42C30.3933 229.234 38.2783 232.5 46.5 232.5H201.5C209.722 232.5 217.607 229.234 223.42 223.42C229.234 217.607 232.5 209.722 232.5 201.5V86.7031C232.5 86.3177 232.347 85.9481 232.074 85.6756C231.802 85.4031 231.432 85.25 231.047 85.25H16.9531C16.5677 85.25 16.1981 85.4031 15.9256 85.6756C15.6531 85.9481 15.5 86.3177 15.5 86.7031V201.5ZM182.125 100.75C184.424 100.75 186.672 101.432 188.584 102.709C190.495 103.987 191.985 105.802 192.865 107.926C193.745 110.05 193.975 112.388 193.527 114.643C193.078 116.898 191.971 118.969 190.345 120.595C188.719 122.221 186.648 123.328 184.393 123.777C182.138 124.225 179.801 123.995 177.676 123.115C175.552 122.235 173.737 120.745 172.459 118.834C171.182 116.922 170.5 114.674 170.5 112.375C170.5 109.292 171.725 106.335 173.905 104.155C176.085 101.975 179.042 100.75 182.125 100.75ZM182.125 139.5C184.424 139.5 186.672 140.182 188.584 141.459C190.495 142.737 191.985 144.552 192.865 146.676C193.745 148.801 193.975 151.138 193.527 153.393C193.078 155.648 191.971 157.719 190.345 159.345C188.719 160.971 186.648 162.078 184.393 162.527C182.138 162.975 179.801 162.745 177.676 161.865C175.552 160.985 173.737 159.495 172.459 157.584C171.182 155.672 170.5 153.424 170.5 151.125C170.5 148.042 171.725 145.085 173.905 142.905C176.085 140.725 179.042 139.5 182.125 139.5ZM143.375 100.75C145.674 100.75 147.922 101.432 149.834 102.709C151.745 103.987 153.235 105.802 154.115 107.926C154.995 110.05 155.225 112.388 154.777 114.643C154.328 116.898 153.221 118.969 151.595 120.595C149.969 122.221 147.898 123.328 145.643 123.777C143.388 124.225 141.051 123.995 138.926 123.115C136.802 122.235 134.987 120.745 133.709 118.834C132.432 116.922 131.75 114.674 131.75 112.375C131.75 109.292 132.975 106.335 135.155 104.155C137.335 101.975 140.292 100.75 143.375 100.75ZM143.375 139.5C145.674 139.5 147.922 140.182 149.834 141.459C151.745 142.737 153.235 144.552 154.115 146.676C154.995 148.801 155.225 151.138 154.777 153.393C154.328 155.648 153.221 157.719 151.595 159.345C149.969 160.971 147.898 162.078 145.643 162.527C143.388 162.975 141.051 162.745 138.926 161.865C136.802 160.985 134.987 159.495 133.709 157.584C132.432 155.672 131.75 153.424 131.75 151.125C131.75 148.042 132.975 145.085 135.155 142.905C137.335 140.725 140.292 139.5 143.375 139.5ZM143.375 178.25C145.674 178.25 147.922 178.932 149.834 180.209C151.745 181.487 153.235 183.302 154.115 185.426C154.995 187.551 155.225 189.888 154.777 192.143C154.328 194.398 153.221 196.469 151.595 198.095C149.969 199.721 147.898 200.828 145.643 201.277C143.388 201.725 141.051 201.495 138.926 200.615C136.802 199.735 134.987 198.245 133.709 196.334C132.432 194.422 131.75 192.174 131.75 189.875C131.75 186.792 132.975 183.835 135.155 181.655C137.335 179.475 140.292 178.25 143.375 178.25ZM104.625 139.5C106.924 139.5 109.172 140.182 111.084 141.459C112.995 142.737 114.485 144.552 115.365 146.676C116.245 148.801 116.475 151.138 116.027 153.393C115.578 155.648 114.471 157.719 112.845 159.345C111.219 160.971 109.148 162.078 106.893 162.527C104.638 162.975 102.3 162.745 100.176 161.865C98.0521 160.985 96.2365 159.495 94.9592 157.584C93.6818 155.672 93 153.424 93 151.125C93 148.042 94.2248 145.085 96.4049 142.905C98.585 140.725 101.542 139.5 104.625 139.5ZM104.625 178.25C106.924 178.25 109.172 178.932 111.084 180.209C112.995 181.487 114.485 183.302 115.365 185.426C116.245 187.551 116.475 189.888 116.027 192.143C115.578 194.398 114.471 196.469 112.845 198.095C111.219 199.721 109.148 200.828 106.893 201.277C104.638 201.725 102.3 201.495 100.176 200.615C98.0521 199.735 96.2365 198.245 94.9592 196.334C93.6818 194.422 93 192.174 93 189.875C93 186.792 94.2248 183.835 96.4049 181.655C98.585 179.475 101.542 178.25 104.625 178.25ZM65.875 139.5C68.1742 139.5 70.4218 140.182 72.3335 141.459C74.2452 142.737 75.7352 144.552 76.6151 146.676C77.495 148.801 77.7252 151.138 77.2766 153.393C76.8281 155.648 75.7209 157.719 74.0951 159.345C72.4693 160.971 70.398 162.078 68.1429 162.527C65.8879 162.975 63.5505 162.745 61.4263 161.865C59.3021 160.985 57.4865 159.495 56.2092 157.584C54.9318 155.672 54.25 153.424 54.25 151.125C54.25 148.042 55.4748 145.085 57.6549 142.905C59.835 140.725 62.7919 139.5 65.875 139.5ZM65.875 178.25C68.1742 178.25 70.4218 178.932 72.3335 180.209C74.2452 181.487 75.7352 183.302 76.6151 185.426C77.495 187.551 77.7252 189.888 77.2766 192.143C76.8281 194.398 75.7209 196.469 74.0951 198.095C72.4693 199.721 70.398 200.828 68.1429 201.277C65.8879 201.725 63.5505 201.495 61.4263 200.615C59.3021 199.735 57.4865 198.245 56.2092 196.334C54.9318 194.422 54.25 192.174 54.25 189.875C54.25 186.792 55.4748 183.835 57.6549 181.655C59.835 179.475 62.7919 178.25 65.875 178.25Z" fill="#EAEAEA"/>
</svg>
