<svg width="50" height="50" viewBox="0 0 50 50" fill="none" xmlns="http://www.w3.org/2000/svg">
<rect width="50" height="50" rx="10" fill="#5271FF"/>
<path d="M13.5413 32.8029C13.5413 32.807 13.5413 32.8147 13.5366 32.8252C13.5384 32.8182 13.5396 32.8106 13.5413 32.8029Z" fill="white"/>
<path d="M35.7754 33.7656C35.5825 33.7615 35.392 33.7217 35.2135 33.6484L31.8866 32.469L31.8619 32.459C31.7894 32.4287 31.7114 32.4136 31.6328 32.4145C31.5604 32.4145 31.4885 32.4276 31.4207 32.4531C31.3399 32.4836 30.6116 32.7572 29.8475 32.967C29.4332 33.0807 27.9912 33.4516 26.834 33.4516C23.8762 33.4516 21.1106 32.3148 19.0475 30.2506C18.0396 29.2489 17.2405 28.0573 16.6962 26.7446C16.152 25.432 15.8736 24.0245 15.877 22.6035C15.877 21.8631 15.9567 21.1249 16.1149 20.4016C16.6299 18.0215 17.994 15.8565 19.9557 14.3078C21.968 12.7293 24.4522 11.8726 27.0098 11.875C30.069 11.875 32.9196 13.0469 35.0371 15.1668C37.0387 17.1748 38.1356 19.815 38.1268 22.6006C38.1251 24.6705 37.507 26.6929 36.3514 28.4102L36.3403 28.4266L36.2969 28.4852C36.2869 28.4986 36.277 28.5115 36.2676 28.525L36.2588 28.5408C36.2355 28.5805 36.2144 28.6213 36.1955 28.6633L37.1178 31.941C37.1586 32.0762 37.1807 32.2164 37.1834 32.3576C37.1837 32.5426 37.1474 32.7258 37.0767 32.8967C37.006 33.0676 36.9023 33.223 36.7715 33.3538C36.6408 33.4845 36.4854 33.5882 36.3145 33.6589C36.1436 33.7296 35.9604 33.7659 35.7754 33.7656Z" fill="white"/>
<path d="M27.5705 34.9252C27.51 34.8075 27.4248 34.7041 27.3208 34.6222C27.2167 34.5403 27.0963 34.4818 26.9676 34.4506C26.6289 34.361 26.234 34.3762 25.9322 34.3539C23.083 34.1558 20.4018 32.933 18.3842 30.9115C16.5905 29.1279 15.4248 26.8098 15.0625 24.3063C14.9805 23.7356 14.9805 23.5938 14.9805 23.5938C14.9805 23.4033 14.9224 23.2175 14.8142 23.0608C14.7059 22.9042 14.5525 22.7843 14.3744 22.717C14.1963 22.6496 14.0019 22.6382 13.8171 22.6841C13.6323 22.73 13.4658 22.831 13.3399 22.9738C13.3399 22.9738 12.8782 23.4766 12.6602 23.9811C12.0489 25.3896 11.7882 26.9253 11.9004 28.4567C12.0127 29.988 12.4945 31.4693 13.3047 32.7737C13.4571 33.0274 13.4571 33.1446 13.4231 33.4082C13.2631 34.235 12.983 35.6934 12.8371 36.4498C12.7888 36.6951 12.8068 36.9489 12.8892 37.185C12.9716 37.421 13.1154 37.6308 13.3059 37.7928L13.3328 37.8156C13.5848 38.0158 13.897 38.1248 14.2188 38.125C14.3998 38.1252 14.579 38.0895 14.7461 38.0201L17.8815 36.8102C17.9894 36.7691 18.1087 36.7691 18.2166 36.8102C19.4512 37.2696 20.7362 37.5133 21.9537 37.5133C23.4708 37.5147 24.9695 37.1814 26.343 36.5371C26.6629 36.3871 27.1633 36.2242 27.4563 35.8856C27.5671 35.7542 27.6371 35.5932 27.6574 35.4225C27.6777 35.2518 27.6475 35.0789 27.5705 34.9252Z" fill="white"/>
</svg>
