<svg width="18" height="19" viewBox="0 0 18 19" fill="none" xmlns="http://www.w3.org/2000/svg">
<path d="M16.3125 14.0139C16.155 14.0138 15.9993 13.9806 15.8555 13.9165C15.822 13.9016 15.7901 13.8835 15.7602 13.8624L12.8524 11.8156C12.705 11.7118 12.5846 11.574 12.5015 11.414C12.4184 11.2539 12.375 11.0762 12.375 10.8959V8.10446C12.375 7.92412 12.4184 7.74644 12.5015 7.58638C12.5846 7.42632 12.705 7.28858 12.8524 7.18477L15.7602 5.13798C15.7901 5.11683 15.822 5.09869 15.8555 5.08383C16.0268 5.00768 16.2143 4.97554 16.4012 4.99032C16.5881 5.0051 16.7683 5.06634 16.9255 5.16847C17.0826 5.2706 17.2118 5.41039 17.3012 5.57514C17.3907 5.73988 17.4375 5.92436 17.4375 6.1118V12.8885C17.4375 13.1869 17.319 13.473 17.108 13.684C16.897 13.895 16.6109 14.0135 16.3125 14.0135V14.0139Z" fill="#062144"/>
<path d="M9.42188 14.5625H2.95312C2.31929 14.5618 1.71161 14.3098 1.26342 13.8616C0.815229 13.4134 0.563151 12.8057 0.5625 12.1719V6.82812C0.563151 6.19429 0.815229 5.58661 1.26342 5.13842C1.71161 4.69023 2.31929 4.43815 2.95312 4.4375H9.43875C10.0681 4.43824 10.6714 4.68857 11.1164 5.13358C11.5614 5.57858 11.8118 6.18192 11.8125 6.81125V12.1719C11.8118 12.8057 11.5598 13.4134 11.1116 13.8616C10.6634 14.3098 10.0557 14.5618 9.42188 14.5625Z" fill="#062144"/>
</svg>
