<svg width="16" height="16" viewBox="0 0 16 16" fill="none" xmlns="http://www.w3.org/2000/svg">
<rect width="16" height="16" rx="4" fill="#FF5858"/>
<path d="M8.98394 8.18847L11.2105 5.96191C11.3162 5.85643 11.3756 5.71328 11.3757 5.56397C11.3759 5.41466 11.3167 5.27141 11.2112 5.16574C11.1057 5.06007 10.9626 5.00063 10.8133 5.0005C10.664 5.00037 10.5207 5.05955 10.415 5.16504L8.18847 7.3916L5.96191 5.16504C5.85624 5.05937 5.71292 5 5.56348 5C5.41403 5 5.27071 5.05937 5.16504 5.16504C5.05937 5.27071 5 5.41403 5 5.56348C5 5.71292 5.05937 5.85624 5.16504 5.96191L7.3916 8.18847L5.16504 10.415C5.05937 10.5207 5 10.664 5 10.8135C5 10.9629 5.05937 11.1062 5.16504 11.2119C5.27071 11.3176 5.41403 11.3769 5.56348 11.3769C5.71292 11.3769 5.85624 11.3176 5.96191 11.2119L8.18847 8.98535L10.415 11.2119C10.5207 11.3176 10.664 11.3769 10.8135 11.3769C10.9629 11.3769 11.1062 11.3176 11.2119 11.2119C11.3176 11.1062 11.3769 10.9629 11.3769 10.8135C11.3769 10.664 11.3176 10.5207 11.2119 10.415L8.98394 8.18847Z" fill="white"/>
</svg>
