<svg width="18" height="18" viewBox="0 0 18 18" fill="none" xmlns="http://www.w3.org/2000/svg">
<path d="M1.6875 6.1875V6.2107C1.68667 6.35565 1.63433 6.49559 1.53984 6.60551V6.60727C1.35 6.83156 1.125 7.23305 1.125 7.875C1.125 8.45684 1.31133 8.86746 1.53563 9.13746C1.63403 9.25723 1.68773 9.40749 1.6875 9.5625C1.6875 9.86087 1.80603 10.147 2.017 10.358C2.22798 10.569 2.51413 10.6875 2.8125 10.6875H3.09375C3.16834 10.6875 3.23988 10.6579 3.29262 10.6051C3.34537 10.5524 3.375 10.4808 3.375 10.4062V5.34375C3.375 5.26916 3.34537 5.19762 3.29262 5.14488C3.23988 5.09213 3.16834 5.0625 3.09375 5.0625H2.8125C2.51413 5.0625 2.22798 5.18103 2.017 5.39201C1.80603 5.60298 1.6875 5.88913 1.6875 6.1875Z" fill="#fff"/>
<path d="M15.897 6.55841L15.8643 6.55243C15.8322 6.54629 15.8032 6.52914 15.7823 6.50392C15.7615 6.4787 15.7501 6.44699 15.7501 6.41427V2.1797C15.7501 1.73532 15.4551 1.33595 15.0157 1.18407C14.5966 1.03958 14.16 1.15735 13.9019 1.48395C13.353 2.13949 12.7495 2.7474 12.098 3.30118C11.2673 4.0043 10.4724 4.50528 9.74258 4.78864C9.68936 4.80893 9.64355 4.8449 9.61122 4.8918C9.57889 4.93869 9.56156 4.9943 9.56152 5.05126V10.5117C9.56161 10.6217 9.59393 10.7292 9.65448 10.821C9.71502 10.9128 9.80114 10.9848 9.90219 11.0282C10.5821 11.3196 11.3169 11.7956 12.0819 12.4443C12.7382 13.0031 13.346 13.6165 13.8987 14.278C13.9873 14.3891 14.1003 14.4782 14.229 14.5384C14.3577 14.5986 14.4985 14.6282 14.6405 14.625C14.7654 14.6245 14.8893 14.6038 15.0076 14.5638C15.4586 14.4141 15.7501 14.0291 15.7501 13.5844V9.33505C15.7501 9.30185 15.7619 9.26974 15.7833 9.24439C15.8047 9.21904 15.8344 9.20209 15.8671 9.19653L15.897 9.19161C16.2352 9.09985 16.8751 8.70716 16.8751 7.87501C16.8751 7.04286 16.2352 6.65016 15.897 6.55841Z" fill="#fff"/>
<path d="M8.4375 11.25V5.34375C8.4375 5.26916 8.40787 5.19762 8.35512 5.14488C8.30238 5.09213 8.23084 5.0625 8.15625 5.0625H4.78125C4.70666 5.0625 4.63512 5.09213 4.58238 5.14488C4.52963 5.19762 4.5 5.26916 4.5 5.34375V16.0312C4.5 16.255 4.58889 16.4696 4.74713 16.6279C4.90536 16.7861 5.11997 16.875 5.34375 16.875H7.1877C7.36297 16.8765 7.53626 16.8378 7.69428 16.7619C7.85229 16.686 7.99084 16.575 8.0993 16.4373C8.2105 16.2948 8.28529 16.1273 8.31721 15.9493C8.34912 15.7714 8.3372 15.5883 8.28246 15.416C8.22551 15.2339 8.15484 15.0293 8.07961 14.8117C7.80152 14.0066 7.43484 13.5084 7.33711 12.3746C7.63113 12.3682 7.91094 12.2469 8.11662 12.0367C8.3223 11.8265 8.43748 11.5441 8.4375 11.25Z" fill="#fff"/>
</svg>
