<svg width="18" height="18" viewBox="0 0 18 18" fill="none" xmlns="http://www.w3.org/2000/svg">
<path d="M15.0469 7.875H10.125C9.67745 7.875 9.24822 7.69721 8.93176 7.38074C8.61529 7.06428 8.4375 6.63505 8.4375 6.1875V1.26562C8.4375 1.22833 8.42268 1.19256 8.39631 1.16619C8.36994 1.13982 8.33417 1.125 8.29688 1.125H5.0625C4.46576 1.125 3.89347 1.36205 3.47151 1.78401C3.04955 2.20597 2.8125 2.77826 2.8125 3.375V14.625C2.8125 15.2217 3.04955 15.794 3.47151 16.216C3.89347 16.6379 4.46576 16.875 5.0625 16.875H12.9375C13.5342 16.875 14.1065 16.6379 14.5285 16.216C14.9504 15.794 15.1875 15.2217 15.1875 14.625V8.01562C15.1875 7.97833 15.1727 7.94256 15.1463 7.91619C15.1199 7.88982 15.0842 7.875 15.0469 7.875ZM11.8125 13.5H6.1875C6.03832 13.5 5.89524 13.4407 5.78975 13.3352C5.68426 13.2298 5.625 13.0867 5.625 12.9375C5.625 12.7883 5.68426 12.6452 5.78975 12.5398C5.89524 12.4343 6.03832 12.375 6.1875 12.375H11.8125C11.9617 12.375 12.1048 12.4343 12.2102 12.5398C12.3157 12.6452 12.375 12.7883 12.375 12.9375C12.375 13.0867 12.3157 13.2298 12.2102 13.3352C12.1048 13.4407 11.9617 13.5 11.8125 13.5ZM11.8125 10.6875H6.1875C6.03832 10.6875 5.89524 10.6282 5.78975 10.5227C5.68426 10.4173 5.625 10.2742 5.625 10.125C5.625 9.97582 5.68426 9.83274 5.78975 9.72725C5.89524 9.62176 6.03832 9.5625 6.1875 9.5625H11.8125C11.9617 9.5625 12.1048 9.62176 12.2102 9.72725C12.3157 9.83274 12.375 9.97582 12.375 10.125C12.375 10.2742 12.3157 10.4173 12.2102 10.5227C12.1048 10.6282 11.9617 10.6875 11.8125 10.6875Z" fill="#fff"/>
<path d="M14.7382 6.63013L9.68238 1.57431C9.67255 1.56454 9.66005 1.55789 9.64645 1.5552C9.63285 1.55251 9.61876 1.5539 9.60594 1.5592C9.59313 1.5645 9.58217 1.57346 9.57444 1.58497C9.56671 1.59648 9.56256 1.61002 9.5625 1.62388V6.18751C9.5625 6.3367 9.62176 6.47977 9.72725 6.58526C9.83274 6.69075 9.97581 6.75001 10.125 6.75001H14.6886C14.7025 6.74996 14.716 6.7458 14.7275 6.73807C14.739 6.73034 14.748 6.71938 14.7533 6.70657C14.7586 6.69376 14.76 6.67967 14.7573 6.66607C14.7546 6.65246 14.748 6.63996 14.7382 6.63013Z" fill="#fff"/>
</svg>
