<svg width="18" height="18" viewBox="0 0 18 18" fill="none" xmlns="http://www.w3.org/2000/svg">
<path d="M7.11 2.60157C5.8398 1.99513 4.06441 1.69806 1.6875 1.68751C1.46333 1.68446 1.24357 1.74983 1.0575 1.87489C0.904779 1.97812 0.779762 2.1173 0.693448 2.28018C0.607134 2.44306 0.562167 2.62466 0.562502 2.80899V12.8672C0.562502 13.5471 1.04625 14.0601 1.6875 14.0601C4.18605 14.0601 6.69234 14.2935 8.19351 15.7124C8.21405 15.7319 8.23986 15.7449 8.26774 15.7499C8.29562 15.7548 8.32435 15.7515 8.35034 15.7402C8.37633 15.729 8.39845 15.7104 8.41395 15.6867C8.42944 15.663 8.43763 15.6352 8.4375 15.6069V3.7554C8.43756 3.67544 8.42045 3.5964 8.38734 3.52362C8.35422 3.45084 8.30587 3.38601 8.24554 3.33353C7.90168 3.03956 7.51972 2.79335 7.11 2.60157Z" fill="#fff"/>
<path d="M16.9425 1.87383C16.7563 1.74908 16.5366 1.68408 16.3125 1.68751C13.9356 1.69805 12.1602 1.99372 10.89 2.60157C10.4803 2.793 10.0982 3.03873 9.7541 3.33212C9.69391 3.38469 9.64567 3.44954 9.61263 3.52231C9.57958 3.59508 9.56249 3.67407 9.5625 3.75399V15.6062C9.56248 15.6334 9.5705 15.66 9.58555 15.6827C9.6006 15.7054 9.62201 15.7231 9.64709 15.7337C9.67217 15.7442 9.69981 15.7471 9.72654 15.742C9.75327 15.7369 9.7779 15.7241 9.79734 15.705C10.6998 14.8085 12.2836 14.059 16.3139 14.0593C16.6123 14.0593 16.8984 13.9408 17.1094 13.7298C17.3204 13.5189 17.4389 13.2327 17.4389 12.9343V2.80934C17.4393 2.62464 17.3942 2.44268 17.3077 2.27952C17.2211 2.11637 17.0957 1.97704 16.9425 1.87383Z" fill="#fff"/>
</svg>
