<svg width="26" height="26" viewBox="0 0 26 26" fill="none" xmlns="http://www.w3.org/2000/svg">
<path d="M13 0.25C5.96094 0.25 0.25 5.96094 0.25 13C0.25 20.0391 5.96094 25.75 13 25.75C20.0391 25.75 25.75 20.0391 25.75 13C25.75 5.96094 20.0391 0.25 13 0.25ZM12.6016 20.4375C12.3389 20.4375 12.0821 20.3596 11.8637 20.2137C11.6453 20.0677 11.4751 19.8603 11.3745 19.6176C11.274 19.3749 11.2477 19.1079 11.299 18.8503C11.3502 18.5926 11.4767 18.356 11.6624 18.1702C11.8482 17.9845 12.0848 17.858 12.3425 17.8068C12.6001 17.7555 12.8671 17.7818 13.1098 17.8823C13.3525 17.9829 13.5599 18.1531 13.7059 18.3715C13.8518 18.5899 13.9297 18.8467 13.9297 19.1094C13.9297 19.4616 13.7898 19.7994 13.5407 20.0485C13.2916 20.2976 12.9538 20.4375 12.6016 20.4375ZM14.8222 13.6641C13.7457 14.3866 13.5977 15.0486 13.5977 15.6562C13.5977 15.9028 13.4997 16.1393 13.3254 16.3136C13.151 16.488 12.9145 16.5859 12.668 16.5859C12.4214 16.5859 12.1849 16.488 12.0106 16.3136C11.8362 16.1393 11.7383 15.9028 11.7383 15.6562C11.7383 14.2013 12.4077 13.0445 13.7849 12.1195C15.0652 11.2602 15.7891 10.7156 15.7891 9.51832C15.7891 8.70418 15.3242 8.08594 14.362 7.6284C14.1355 7.52082 13.6315 7.4159 13.0113 7.4232C12.233 7.43316 11.6287 7.6191 11.1632 7.99363C10.2853 8.7002 10.2109 9.46918 10.2109 9.48047C10.2051 9.60256 10.1752 9.72229 10.123 9.83283C10.0709 9.94337 9.99743 10.0426 9.90694 10.1247C9.81645 10.2069 9.71066 10.2704 9.59561 10.3117C9.48057 10.353 9.35851 10.3712 9.23643 10.3653C9.11434 10.3594 8.9946 10.3296 8.88406 10.2774C8.77352 10.2253 8.67433 10.1518 8.59217 10.0613C8.51 9.97085 8.44646 9.86506 8.40518 9.75001C8.36389 9.63496 8.34568 9.51291 8.35156 9.39082C8.35887 9.22945 8.47109 7.77582 9.99645 6.54863C10.7873 5.91246 11.7934 5.58176 12.9847 5.56715C13.8281 5.55719 14.6203 5.69996 15.1575 5.95363C16.7652 6.71398 17.6484 7.98168 17.6484 9.51832C17.6484 11.7648 16.147 12.7736 14.8222 13.6641Z" fill="white"/>
</svg>
