<svg width="18" height="18" viewBox="0 0 18 18" fill="none" xmlns="http://www.w3.org/2000/svg">
<path d="M9.19557 3.56062C9.14323 3.51055 9.07359 3.4826 9.00116 3.4826C8.92872 3.4826 8.85908 3.51055 8.80674 3.56062L2.33447 9.74355C2.30699 9.76985 2.28512 9.80144 2.27019 9.83643C2.25527 9.87142 2.24759 9.90907 2.24764 9.94711L2.24658 15.75C2.24658 16.0484 2.36511 16.3345 2.57609 16.5455C2.78707 16.7565 3.07321 16.875 3.37158 16.875H6.7501C6.89928 16.875 7.04236 16.8157 7.14785 16.7103C7.25334 16.6048 7.3126 16.4617 7.3126 16.3125V11.5313C7.3126 11.4567 7.34223 11.3851 7.39498 11.3324C7.44772 11.2796 7.51926 11.25 7.59385 11.25H10.4064C10.4809 11.25 10.5525 11.2796 10.6052 11.3324C10.658 11.3851 10.6876 11.4567 10.6876 11.5313V16.3125C10.6876 16.4617 10.7469 16.6048 10.8524 16.7103C10.9578 16.8157 11.1009 16.875 11.2501 16.875H14.6272C14.9256 16.875 15.2117 16.7565 15.4227 16.5455C15.6337 16.3345 15.7522 16.0484 15.7522 15.75V9.94711C15.7523 9.90907 15.7446 9.87142 15.7297 9.83643C15.7147 9.80144 15.6929 9.76985 15.6654 9.74355L9.19557 3.56062Z" fill="white"/>
<path d="M17.2586 8.58341L14.6289 6.06762V2.25C14.6289 2.10082 14.5696 1.95774 14.4641 1.85225C14.3586 1.74676 14.2156 1.6875 14.0664 1.6875H12.3789C12.2297 1.6875 12.0866 1.74676 11.9811 1.85225C11.8756 1.95774 11.8164 2.10082 11.8164 2.25V3.375L9.78013 1.42805C9.58958 1.23539 9.30622 1.125 9.00001 1.125C8.69485 1.125 8.4122 1.23539 8.22165 1.4284L0.743919 8.58271C0.525248 8.79364 0.497826 9.14064 0.69681 9.36915C0.746778 9.42683 0.80796 9.47374 0.876634 9.50703C0.945307 9.54031 1.02003 9.55927 1.09627 9.56276C1.1725 9.56625 1.24865 9.55418 1.32007 9.5273C1.3915 9.50043 1.45671 9.4593 1.51173 9.40642L8.80665 2.43563C8.85899 2.38556 8.92863 2.35761 9.00106 2.35761C9.0735 2.35761 9.14314 2.38556 9.19548 2.43563L16.4911 9.40642C16.5986 9.50948 16.7425 9.56572 16.8914 9.56282C17.0403 9.55992 17.1819 9.49811 17.2853 9.39095C17.5011 9.16735 17.4832 8.79821 17.2586 8.58341Z" fill="white"/>
</svg>
